<svg width="44" height="45" viewBox="0 0 44 45" fill="none" xmlns="http://www.w3.org/2000/svg">
<g id="Test">
<path id="Vector" d="M17.1875 25.2065H14.4375V27.9565H17.1875V25.2065Z" fill="#9C81CC"/>
<path id="Vector_2" d="M17.1875 15.5815H14.4375V18.3315H17.1875V15.5815Z" fill="#9C81CC"/>
<path id="Vector_3" d="M17.1875 34.8315H14.4375V37.5815H17.1875V34.8315Z" fill="#9C81CC"/>
<path id="Vector_4" d="M34.375 4.58154H31.625V5.95654C31.625 8.23079 29.7743 10.0815 27.5 10.0815H16.5C14.2257 10.0815 12.375 8.23079 12.375 5.95654V4.58154H9.625C8.10837 4.58154 6.875 5.81492 6.875 7.33154V40.3315C6.875 41.8482 8.10837 43.0815 9.625 43.0815H34.375C35.8916 43.0815 37.125 41.8482 37.125 40.3315V7.33154C37.125 5.81492 35.8916 4.58154 34.375 4.58154ZM18.5625 38.269C18.5625 38.6485 18.2545 38.9565 17.875 38.9565H13.75C13.3705 38.9565 13.0625 38.6485 13.0625 38.269V34.144C13.0625 33.7645 13.3705 33.4565 13.75 33.4565H17.875C18.2545 33.4565 18.5625 33.7645 18.5625 34.144V38.269ZM18.5625 28.644C18.5625 29.0235 18.2545 29.3315 17.875 29.3315H13.75C13.3705 29.3315 13.0625 29.0235 13.0625 28.644V24.519C13.0625 24.1395 13.3705 23.8315 13.75 23.8315H17.875C18.2545 23.8315 18.5625 24.1395 18.5625 24.519V28.644ZM18.5625 19.019C18.5625 19.3985 18.2545 19.7065 17.875 19.7065H13.75C13.3705 19.7065 13.0625 19.3985 13.0625 19.019V14.894C13.0625 14.5145 13.3705 14.2065 13.75 14.2065H17.875C18.2545 14.2065 18.5625 14.5145 18.5625 14.894V19.019ZM30.25 38.9565H22C21.6205 38.9565 21.3125 38.6485 21.3125 38.269C21.3125 37.8895 21.6205 37.5815 22 37.5815H30.25C30.6295 37.5815 30.9375 37.8895 30.9375 38.269C30.9375 38.6485 30.6295 38.9565 30.25 38.9565ZM30.25 34.8315H22C21.6205 34.8315 21.3125 34.5235 21.3125 34.144C21.3125 33.7645 21.6205 33.4565 22 33.4565H30.25C30.6295 33.4565 30.9375 33.7645 30.9375 34.144C30.9375 34.5235 30.6295 34.8315 30.25 34.8315ZM30.25 29.3315H22C21.6205 29.3315 21.3125 29.0235 21.3125 28.644C21.3125 28.2645 21.6205 27.9565 22 27.9565H30.25C30.6295 27.9565 30.9375 28.2645 30.9375 28.644C30.9375 29.0235 30.6295 29.3315 30.25 29.3315ZM30.25 25.2065H22C21.6205 25.2065 21.3125 24.8985 21.3125 24.519C21.3125 24.1395 21.6205 23.8315 22 23.8315H30.25C30.6295 23.8315 30.9375 24.1395 30.9375 24.519C30.9375 24.8985 30.6295 25.2065 30.25 25.2065ZM30.25 19.7065H22C21.6205 19.7065 21.3125 19.3985 21.3125 19.019C21.3125 18.6395 21.6205 18.3315 22 18.3315H30.25C30.6295 18.3315 30.9375 18.6395 30.9375 19.019C30.9375 19.3985 30.6295 19.7065 30.25 19.7065ZM30.25 15.5815H22C21.6205 15.5815 21.3125 15.2735 21.3125 14.894C21.3125 14.5145 21.6205 14.2065 22 14.2065H30.25C30.6295 14.2065 30.9375 14.5145 30.9375 14.894C30.9375 15.2735 30.6295 15.5815 30.25 15.5815Z" fill="#9C81CC"/>
<path id="Vector_5" d="M16.5 8.70654H27.5C29.0166 8.70654 30.25 7.47317 30.25 5.95654V4.58154C30.25 3.06492 29.0166 1.83154 27.5 1.83154H16.5C14.9834 1.83154 13.75 3.06492 13.75 4.58154V5.95654C13.75 7.47317 14.9834 8.70654 16.5 8.70654Z" fill="#9C81CC"/>
</g>
</svg>
