<svg width="427" height="365" viewBox="0 0 427 365" fill="none" xmlns="http://www.w3.org/2000/svg">
<g clip-path="url(#clip0_16_2019)">
<path d="M126.18 241.45C122.07 242.83 117 243.6 111.4 240.28C105.39 236.71 101.44 229.98 98 223.79C93.48 215.67 89.32 208.82 81.46 204.53C75.79 201.44 69.76 199.72 64.37 194.66C58.1 188.77 55.13 180.49 54.16 173.59C53.04 165.55 54.23 158.26 51.51 149.69C49.86 144.5 47.01 139.92 42.71 135.91C39.6 133.01 36.26 130.61 33.17 127.68C23.19 118.25 20.02 105.05 25.17 99.02C28.42 91.92 37.54 90.49 47.63 97.54C55.7 103.18 60.19 112.13 65.94 120.18C72.16 128.89 78.87 132.4 86.75 135.47C92.11 137.56 97.82 139.59 103.01 144.16C108.23 148.75 111.42 154.93 114.01 160.93C117.18 168.26 119.97 176.85 126.66 182.58C130.25 185.65 134.19 187.45 137.76 190.67C140.18 192.86 142.32 195.5 144.09 198.3C153.64 213.37 149.78 226.59 142.25 233.03C137.75 236.89 131.98 239.49 126.18 241.44V241.45Z" fill="#F6EEFF"/>
<path d="M41.0601 108.44C49.5801 120.68 58.1601 132.88 66.7901 145.05C61.3701 142.22 55.9601 139.39 50.5401 136.57C49.5001 136.03 48.8201 137.72 49.8501 138.25L68.5701 148.02C68.7201 148.1 68.8601 148.12 68.9901 148.12C76.2401 158.32 83.5401 168.48 90.8701 178.63C81.1301 175.43 71.3901 172.22 61.6401 169.02C60.5301 168.66 59.8301 170.34 60.9501 170.7C71.3501 174.12 81.7501 177.54 92.1401 180.96C92.3001 181.01 92.4401 181.01 92.5801 180.99C99.3801 190.39 106.23 199.74 113.1 209.09C105.1 206.12 97.1001 203.15 89.1001 200.18C88.0001 199.77 87.3101 201.46 88.4101 201.86C97.2901 205.16 106.17 208.45 115.04 211.75C119.64 218.01 124.26 224.26 128.88 230.5L104.8 221.28C103.71 220.86 103.01 222.55 104.11 222.96C112.23 226.07 120.35 229.17 128.47 232.28C129.02 232.49 129.44 232.16 129.61 231.74C129.69 231.78 129.78 231.8 129.87 231.82C135.2 239.01 140.56 246.19 145.94 253.34C146.65 254.28 148.08 253.15 147.37 252.22C141.93 244.98 136.51 237.72 131.12 230.45C133.07 221.93 134.5 213.33 135.4 204.63C135.52 203.47 133.71 203.24 133.59 204.41C132.75 212.52 131.44 220.54 129.68 228.5C125.37 222.69 121.07 216.87 116.78 211.04C116.79 210.71 116.63 210.39 116.23 210.24C116.21 210.24 116.2 210.23 116.18 210.22C115.98 209.95 115.78 209.67 115.58 209.4C116.56 200.62 117.54 191.84 118.53 183.05C118.66 181.89 116.85 181.66 116.72 182.83C115.81 190.96 114.9 199.09 113.99 207.22C107.2 197.98 100.43 188.73 93.7101 179.44C94.6701 169.95 95.6301 160.46 96.6001 150.97C96.7201 149.81 94.9101 149.58 94.7901 150.75C93.9001 159.58 93.0001 168.4 92.1101 177.23C84.6601 166.92 77.2401 156.59 69.8701 146.22C69.9701 146.1 70.0401 145.96 70.0701 145.77L71.6801 132.12C71.8201 130.96 70.0101 130.73 69.8701 131.9C69.3901 136 68.9001 140.1 68.4201 144.2C59.7201 131.95 51.0801 119.65 42.4901 107.32C41.8201 106.36 40.3901 107.48 41.0601 108.44Z" fill="#FAEDEC"/>
<path d="M91.5103 276.58C82.0103 273.7 72.3603 270.79 62.3503 270.37C52.3403 269.95 41.7403 272.34 34.5903 278.76C27.4403 285.18 24.8503 296.14 30.3603 303.74C36.9203 312.78 50.8003 313.72 62.7003 314.07C79.3603 314.55 98.0903 316.61 108.24 328.61C113.44 334.76 115.6 342.78 121.27 348.58C130.96 358.5 147.98 359.02 162.12 355.65C176.26 352.28 189.55 345.81 204.05 344.2C220.23 342.41 236.33 346.82 252.45 348.94C307.88 356.23 364.06 340.68 398 299.98C402.99 293.99 407.66 286.26 404.52 279.32C400.52 270.5 390.3 264.13 379.82 264.69C354.19 266.05 328.41 266.8 302.88 264.44C280.04 262.33 257.75 256.89 235.09 253.59C181.36 245.78 143.01 260.31 91.5203 276.57" fill="#F6EEFF"/>
<path d="M349.821 233.12C352.341 227.11 354.901 220.82 354.431 214.32C353.991 208.3 353.901 201.59 352.041 195.85C350.191 190.1 349.611 184 349.971 177.97C351.101 159.07 359.091 159.85 362.101 160.79C365.061 161.72 366.831 164.5 367.741 169.3C368.471 173.16 368.611 191.74 374.101 188.13C380.461 183.95 377.281 165.02 377.371 158.54C377.511 148.84 379.811 138.14 386.021 130.45C389.081 126.66 393.961 123.47 398.611 124.93C401.391 125.8 403.471 128.18 404.821 130.76C408.891 138.54 407.371 147.52 405.331 155.66C404.481 159.06 395.791 175.51 404.631 172.68C406.741 172 422.601 155.07 426.631 169.45C428.051 174.51 423.101 180.7 414.961 188.74C409.881 193.76 390.381 207.83 392.331 213.37C394.281 218.91 404.601 207.98 404.851 218.82C404.991 224.89 397.841 230.39 392.881 233.46C390.521 234.92 387.881 235.9 385.621 237.51C382.941 239.42 379.941 243.5 382.681 246.6C383.881 247.95 385.871 248.42 387.021 249.81C388.191 251.22 388.221 253.34 387.501 255.03C386.781 256.72 385.441 258.06 384.031 259.25C375.051 266.87 362.771 269.79 350.991 269.29C339.221 268.79 327.811 265.17 316.791 260.99" fill="#E9DDFF"/>
<g opacity="0.25">
<path d="M394.521 135.72C394.521 135.72 392.131 199.77 360.381 244.38" stroke="white" stroke-linecap="round" stroke-linejoin="round"/>
<path d="M418.071 174.06C418.071 174.06 399.531 193.77 382.551 198.82" stroke="white" stroke-linecap="round" stroke-linejoin="round"/>
<path d="M360.102 169.03C360.512 178.98 363.862 206.41 375.152 218.15" stroke="white" stroke-linecap="round" stroke-linejoin="round"/>
<path d="M397.412 222.04C397.412 222.04 390.232 230.48 365.062 237.34" stroke="white" stroke-linecap="round" stroke-linejoin="round"/>
<path d="M382.291 252.29C382.291 252.29 369.421 256.66 356.581 251.56" stroke="white" stroke-linecap="round" stroke-linejoin="round"/>
</g>
<path d="M333.841 265.12H280.491C270.081 265.12 271.771 252.78 300.731 258.27C293.631 255.02 293.581 250.67 294.191 249.51C294.741 248.44 296.771 247.76 297.971 247.86C301.651 248.18 304.451 250.43 307.681 252.24C301.841 248.44 298.211 241.47 298.451 234.51C298.521 232.6 298.931 230.54 300.341 229.24C301.921 227.78 304.511 226.81 306.621 227.23C310.531 228.01 317.711 234.53 320.581 237.3C305.991 223.88 300.431 202.73 309.771 197.9C325.501 189.78 337.381 235.79 337.381 235.79C337.381 235.79 329.561 201.21 342.681 201.01C355.801 200.81 345.131 241.18 345.131 241.18" fill="#E9DDFF"/>
<path d="M72.6804 254.53C70.3104 248.86 67.8904 242.93 68.3404 236.8C68.7604 231.12 68.8404 224.79 70.5904 219.38C72.3404 213.96 72.8804 208.2 72.5404 202.51C71.4804 184.68 63.9404 185.42 61.1004 186.31C58.3104 187.19 56.6404 189.81 55.7804 194.34C55.0904 197.98 54.9604 215.5 49.7804 212.1C43.7804 208.16 46.7804 190.31 46.6904 184.19C46.5604 175.04 44.3904 164.95 38.5304 157.7C35.6404 154.13 31.0504 151.12 26.6604 152.49C24.0304 153.31 22.0704 155.55 20.8004 157.99C16.9604 165.33 18.4004 173.8 20.3204 181.47C21.1204 184.68 29.3104 200.2 20.9804 197.52C18.9904 196.88 4.03039 180.91 0.230385 194.47C-1.10961 199.25 3.56038 205.08 11.2304 212.66C16.0204 217.39 34.4104 230.66 32.5704 235.89C30.7304 241.12 21.0004 230.81 20.7604 241.03C20.6304 246.76 27.3704 251.94 32.0504 254.83C34.2704 256.21 36.7604 257.13 38.8904 258.65C41.4204 260.45 44.2504 264.3 41.6604 267.23C40.5304 268.51 38.6504 268.94 37.5604 270.26C36.4504 271.59 36.4304 273.59 37.1104 275.18C37.7904 276.77 39.0604 278.04 40.3804 279.16C48.8504 286.35 60.4404 289.1 71.5404 288.63C82.6404 288.16 93.4004 284.75 103.79 280.8" fill="#E9DDFF"/>
<g opacity="0.25">
<path d="M30.5303 162.67C30.5303 162.67 32.7803 223.08 62.7203 265.16" stroke="white" stroke-linecap="round" stroke-linejoin="round"/>
<path d="M8.31055 198.83C8.31055 198.83 25.8005 217.42 41.8105 222.19" stroke="white" stroke-linecap="round" stroke-linejoin="round"/>
<path d="M62.9803 194.09C62.6003 203.47 59.4303 229.35 48.7803 240.42" stroke="white" stroke-linecap="round" stroke-linejoin="round"/>
<path d="M27.8008 244.08C27.8008 244.08 34.5708 252.04 58.3108 258.51" stroke="white" stroke-linecap="round" stroke-linejoin="round"/>
<path d="M42.0508 272.61C42.0508 272.61 54.1908 276.73 66.3008 271.92" stroke="white" stroke-linecap="round" stroke-linejoin="round"/>
</g>
<path d="M87.7506 284.71H138.071C147.891 284.71 146.291 273.07 118.981 278.25C125.681 275.19 125.721 271.09 125.151 269.99C124.631 268.98 122.711 268.34 121.591 268.44C118.121 268.74 115.481 270.87 112.431 272.57C117.941 268.99 121.361 262.42 121.141 255.85C121.081 254.04 120.691 252.11 119.361 250.88C117.871 249.5 115.431 248.59 113.441 248.98C109.751 249.71 102.981 255.87 100.281 258.48C114.041 245.82 119.281 225.87 110.471 221.32C95.6406 213.66 84.4306 257.06 84.4306 257.06C84.4306 257.06 91.8106 224.45 79.4306 224.26C67.0606 224.07 77.1206 262.14 77.1206 262.14" fill="#E9DDFF"/>
<path d="M192.7 178.18C190.11 171.99 187.47 165.52 187.96 158.83C188.41 152.63 188.51 145.72 190.42 139.81C192.33 133.89 192.92 127.6 192.55 121.4C191.39 101.94 183.16 102.74 180.06 103.71C177.01 104.67 175.19 107.53 174.25 112.48C173.49 116.45 173.35 135.58 167.7 131.87C161.15 127.57 164.43 108.08 164.33 101.4C164.19 91.41 161.82 80.4 155.42 72.48C152.27 68.58 147.25 65.3 142.46 66.79C139.59 67.68 137.45 70.13 136.06 72.8C131.86 80.81 133.43 90.06 135.54 98.43C136.42 101.93 145.36 118.87 136.26 115.95C134.09 115.25 117.76 97.82 113.61 112.62C112.15 117.83 117.24 124.2 125.62 132.48C130.85 137.65 150.93 152.13 148.92 157.84C146.91 163.55 136.29 152.29 136.02 163.45C135.87 169.7 143.24 175.36 148.34 178.52C150.77 180.02 153.49 181.04 155.81 182.69C158.57 184.66 161.66 188.86 158.83 192.05C157.59 193.44 155.55 193.92 154.36 195.35C153.15 196.81 153.13 198.98 153.87 200.72C154.61 202.46 156 203.84 157.44 205.07C166.69 212.92 179.34 215.92 191.46 215.4C203.58 214.89 215.33 211.16 226.67 206.86" fill="#E9DDFF"/>
<g opacity="0.25">
<path d="M146.68 77.9C146.68 77.9 149.14 143.85 181.83 189.79" stroke="white" stroke-linecap="round" stroke-linejoin="round"/>
<path d="M122.42 117.38C122.42 117.38 141.51 137.68 158.99 142.88" stroke="white" stroke-linecap="round" stroke-linejoin="round"/>
<path d="M182.11 112.2C181.69 122.44 178.24 150.69 166.61 162.78" stroke="white" stroke-linecap="round" stroke-linejoin="round"/>
<path d="M143.7 166.78C143.7 166.78 151.09 175.47 177.01 182.54" stroke="white" stroke-linecap="round" stroke-linejoin="round"/>
<path d="M159.26 197.92C159.26 197.92 172.51 202.42 185.73 197.17" stroke="white" stroke-linecap="round" stroke-linejoin="round"/>
</g>
<path d="M209.15 211.13H264.08C274.8 211.13 273.06 198.42 243.24 204.07C250.56 200.73 250.6 196.25 249.98 195.05C249.41 193.95 247.32 193.25 246.09 193.35C242.3 193.68 239.42 196 236.1 197.86C242.11 193.95 245.85 186.77 245.61 179.61C245.54 177.64 245.12 175.53 243.67 174.19C242.04 172.69 239.38 171.69 237.21 172.12C233.19 172.92 225.79 179.64 222.84 182.49C237.86 168.67 243.59 146.89 233.97 141.93C217.78 133.57 205.54 180.94 205.54 180.94C205.54 180.94 213.59 145.34 200.08 145.13C186.57 144.92 197.55 186.49 197.55 186.49" fill="#E9DDFF"/>
<path d="M68.4404 99.72C69.4104 99.72 69.4104 98.22 68.4404 98.22C67.4704 98.22 67.4704 99.72 68.4404 99.72Z" fill="#8069BF"/>
<path d="M75.2304 94.77C76.2004 94.77 76.2004 93.27 75.2304 93.27C74.2604 93.27 74.2604 94.77 75.2304 94.77Z" fill="#8069BF"/>
<path d="M200.631 144.81C201.601 144.81 201.601 143.31 200.631 143.31C199.661 143.31 199.661 144.81 200.631 144.81Z" fill="#8069BF"/>
<path d="M64.7304 88.6C65.7004 88.6 65.7004 87.1 64.7304 87.1C63.7604 87.1 63.7604 88.6 64.7304 88.6Z" fill="#8069BF"/>
<path d="M357.52 229.43C358.49 229.43 358.49 227.93 357.52 227.93C356.55 227.93 356.55 229.43 357.52 229.43Z" fill="#8069BF"/>
<path d="M364.32 236.23C365.29 236.23 365.29 234.73 364.32 234.73C363.35 234.73 363.35 236.23 364.32 236.23Z" fill="#8069BF"/>
<path d="M349.49 242.41C350.46 242.41 350.46 240.91 349.49 240.91C348.52 240.91 348.52 242.41 349.49 242.41Z" fill="#8069BF"/>
<path d="M330.961 54.62C331.931 54.62 331.931 53.12 330.961 53.12C329.991 53.12 329.991 54.62 330.961 54.62Z" fill="#8069BF"/>
<path d="M341.461 57.09C342.431 57.09 342.431 55.59 341.461 55.59C340.491 55.59 340.491 57.09 341.461 57.09Z" fill="#8069BF"/>
<path d="M331.581 65.12C332.551 65.12 332.551 63.62 331.581 63.62C330.611 63.62 330.611 65.12 331.581 65.12Z" fill="#8069BF"/>
<path d="M215.45 110.83C216.42 110.83 216.42 109.33 215.45 109.33C214.48 109.33 214.48 110.83 215.45 110.83Z" fill="#8069BF"/>
<path d="M217.311 100.95C218.281 100.95 218.281 99.45 217.311 99.45C216.341 99.45 216.341 100.95 217.311 100.95Z" fill="#8069BF"/>
<path d="M224.721 111.45C225.691 111.45 225.691 109.95 224.721 109.95C223.751 109.95 223.751 111.45 224.721 111.45Z" fill="#8069BF"/>
<path d="M212.36 280.7C213.33 280.7 213.33 279.2 212.36 279.2C211.39 279.2 211.39 280.7 212.36 280.7Z" fill="#8069BF"/>
<path d="M217.921 288.73C218.891 288.73 218.891 287.23 217.921 287.23C216.951 287.23 216.951 288.73 217.921 288.73Z" fill="#8069BF"/>
<path d="M368.641 291.82C369.611 291.82 369.611 290.32 368.641 290.32C367.671 290.32 367.671 291.82 368.641 291.82Z" fill="#8069BF"/>
<path d="M348.261 127.51C349.231 127.51 349.231 126.01 348.261 126.01C347.291 126.01 347.291 127.51 348.261 127.51Z" fill="#8069BF"/>
<path d="M80.791 66.98C81.761 66.98 81.761 65.48 80.791 65.48C79.821 65.48 79.821 66.98 80.791 66.98Z" fill="#8069BF"/>
<path d="M157.391 24.36C158.361 24.36 158.361 22.86 157.391 22.86C156.421 22.86 156.421 24.36 157.391 24.36Z" fill="#8069BF"/>
<path d="M212.36 1.5C213.33 1.5 213.33 0 212.36 0C211.39 0 211.39 1.5 212.36 1.5Z" fill="#8069BF"/>
<path d="M232.131 16.32C233.101 16.32 233.101 14.82 232.131 14.82C231.161 14.82 231.161 16.32 232.131 16.32Z" fill="#8069BF"/>
<path d="M70.9101 284.41C71.8801 284.41 71.8801 282.91 70.9101 282.91C69.9401 282.91 69.9401 284.41 70.9101 284.41Z" fill="#8069BF"/>
<path d="M42.4902 263.41C43.4602 263.41 43.4602 261.91 42.4902 261.91C41.5202 261.91 41.5202 263.41 42.4902 263.41Z" fill="#8069BF"/>
<path d="M44.9707 267.73C45.9407 267.73 45.9407 266.23 44.9707 266.23C44.0007 266.23 44.0007 267.73 44.9707 267.73Z" fill="#8069BF"/>
<path d="M40.0205 270.82C40.9905 270.82 40.9905 269.32 40.0205 269.32C39.0505 269.32 39.0505 270.82 40.0205 270.82Z" fill="#8069BF"/>
<path d="M327.261 321.47C328.231 321.47 328.231 319.97 327.261 319.97C326.291 319.97 326.291 321.47 327.261 321.47Z" fill="#8069BF"/>
<path d="M68.4404 217.08C69.4104 217.08 69.4104 215.58 68.4404 215.58C67.4704 215.58 67.4704 217.08 68.4404 217.08Z" fill="#8069BF"/>
<path d="M57.9404 336.3C58.9104 336.3 58.9104 334.8 57.9404 334.8C56.9704 334.8 56.9704 336.3 57.9404 336.3Z" fill="#8069BF"/>
<path d="M197.541 328.27C198.511 328.27 198.511 326.77 197.541 326.77C196.571 326.77 196.571 328.27 197.541 328.27Z" fill="#8069BF"/>
<path d="M385.32 336.3C386.29 336.3 386.29 334.8 385.32 334.8C384.35 334.8 384.35 336.3 385.32 336.3Z" fill="#8069BF"/>
<path d="M231.511 3.35001C232.481 3.35001 232.481 1.85001 231.511 1.85001C230.541 1.85001 230.541 3.35001 231.511 3.35001Z" fill="#8069BF"/>
<path d="M285.251 90.45C286.221 90.45 286.221 88.95 285.251 88.95C284.281 88.95 284.281 90.45 285.251 90.45Z" fill="#8069BF"/>
<path d="M303.78 77.48C304.75 77.48 304.75 75.98 303.78 75.98C302.81 75.98 302.81 77.48 303.78 77.48Z" fill="#8069BF"/>
<path d="M24.8906 125.04C25.8606 125.04 25.8606 123.54 24.8906 123.54C23.9206 123.54 23.9206 125.04 24.8906 125.04Z" fill="#8069BF"/>
<path d="M391.501 107.75C392.471 107.75 392.471 106.25 391.501 106.25C390.531 106.25 390.531 107.75 391.501 107.75Z" fill="#8069BF"/>
<path d="M217.65 87.02C263.25 113.49 295.15 160.65 302.8 212.81C303.03 214.41 299.69 212.69 299.39 212.58C247.81 193.79 213.74 143.07 215.84 88.22C215.87 87.36 216.76 86.51 217.65 87.03V87.02Z" fill="#F6EEFF"/>
<path d="M222.15 101.82C242.81 130.79 263.46 159.76 284.12 188.73C274.64 183.13 265.17 177.54 255.69 171.94C254.72 171.37 253.74 172.82 254.71 173.39C265.35 179.67 275.98 185.95 286.62 192.24C292.98 201.16 299.33 210.07 305.69 218.99C306.35 219.91 307.67 218.76 307.02 217.85C300.77 209.09 294.53 200.33 288.28 191.56C288.26 191.33 288.15 191.11 287.89 190.96C287.87 190.95 287.85 190.93 287.82 190.92C266.37 160.84 244.93 130.76 223.48 100.68C222.82 99.76 221.5 100.91 222.15 101.82Z" fill="#FAEDEC"/>
<path d="M234.51 139.09C233.57 138.47 232.59 139.92 233.53 140.54C242.27 146.31 251.02 152.08 259.76 157.85C260.7 158.47 261.68 157.02 260.74 156.4C252 150.63 243.25 144.86 234.51 139.09Z" fill="#FAEDEC"/>
<path d="M241.45 110.23C242.32 116.58 243.19 122.93 244.06 129.28C236.6 123.67 229.14 118.06 221.69 112.44C220.79 111.76 219.81 113.22 220.71 113.89C228.59 119.82 236.47 125.75 244.35 131.68C245.21 132.33 246.12 131.04 245.42 130.33C245.7 130.16 245.91 129.86 245.85 129.44L243.17 109.88C243.02 108.76 241.3 109.1 241.45 110.22V110.23Z" fill="#FAEDEC"/>
<path d="M261.66 132.84L260.71 154.79C260.66 155.91 262.41 156.03 262.46 154.9L263.41 132.95C263.46 131.83 261.71 131.71 261.66 132.84Z" fill="#FAEDEC"/>
<path d="M282.51 167.93C283.98 174.51 284.6 181.18 284.37 187.92C284.33 189.04 286.08 189.16 286.12 188.03C286.36 181.14 285.74 174.32 284.24 167.59C283.99 166.49 282.27 166.82 282.52 167.93H282.51Z" fill="#FAEDEC"/>
<path d="M251.65 222.79C248.12 218.34 244.92 212.44 246.5 204.08C248.21 195.09 254.74 187.23 260.83 180.23C268.82 171.05 275.4 162.87 277.16 151.28C278.44 142.93 277.87 134.73 281.69 125.84C286.14 115.49 295.02 108.15 303.08 103.88C312.48 98.91 321.98 97.13 331.32 89.96C336.97 85.62 341.35 80.06 344.37 72.98C346.55 67.86 348.03 62.68 350.25 57.57C357.42 41.08 372.25 31.29 381.97 34.95C392.16 35.79 397.98 46.38 393.8 61.94C390.45 74.39 381.43 83.9 374.08 94.58C366.13 106.12 364.8 115.94 364.52 127.02C364.33 134.56 364.38 142.49 361.07 150.91C357.75 159.38 351.55 166.06 345.32 171.92C337.71 179.09 328.38 186.35 324.31 197.15C322.14 202.94 321.67 208.6 319.29 214.42C317.67 218.38 315.38 222.18 312.72 225.61C298.42 244.08 280.43 245.23 269.14 238.83C262.39 235.01 256.61 229.07 251.62 222.79H251.65Z" fill="#F6EEFF"/>
<path d="M377.481 58.71C366.211 74.66 355.001 90.66 343.881 106.71C344.951 98.78 346.021 90.85 347.081 82.92C347.281 81.4 344.901 81.31 344.701 82.82L341.011 110.23C340.981 110.45 341.011 110.63 341.081 110.79C331.751 124.26 322.501 137.78 313.271 151.33C312.871 137.91 312.481 124.48 312.081 111.06C312.031 109.53 309.651 109.42 309.701 110.96C310.121 125.29 310.551 139.61 310.971 153.94C310.971 154.16 311.041 154.34 311.131 154.5C302.591 167.06 294.131 179.67 285.681 192.28C285.771 181.11 285.861 169.93 285.961 158.76C285.971 157.23 283.591 157.12 283.581 158.66C283.481 171.06 283.371 183.46 283.271 195.86C277.611 204.31 271.981 212.78 266.351 221.26L266.961 187.5C266.991 185.97 264.611 185.86 264.581 187.4C264.371 198.78 264.171 210.16 263.961 221.54C263.951 222.31 264.531 222.68 265.131 222.7C265.131 222.82 265.131 222.94 265.151 223.06C258.671 232.83 252.221 242.62 245.811 252.44C244.971 253.73 246.991 254.99 247.831 253.7C254.311 243.77 260.841 233.87 267.391 223.99C278.751 222.59 289.971 220.52 301.081 217.75C302.571 217.38 302.041 215.05 300.541 215.43C290.181 218.02 279.721 219.97 269.141 221.36C274.381 213.46 279.631 205.57 284.891 197.7C285.301 197.57 285.631 197.23 285.631 196.66C285.631 196.64 285.631 196.62 285.631 196.59C285.881 196.22 286.131 195.85 286.381 195.48C297.631 192.78 308.881 190.07 320.131 187.37C321.621 187.01 321.091 184.69 319.591 185.05C309.181 187.55 298.761 190.06 288.351 192.56C296.711 180.09 305.071 167.62 313.521 155.2C325.631 152.15 337.751 149.11 349.861 146.06C351.351 145.69 350.821 143.36 349.321 143.74C338.051 146.57 326.791 149.41 315.521 152.24C324.901 138.47 334.311 124.73 343.791 111.03C343.981 111.1 344.191 111.13 344.431 111.07L361.961 106.96C363.451 106.61 362.921 104.29 361.421 104.64C356.161 105.87 350.891 107.11 345.631 108.34C356.841 92.17 368.121 76.04 379.481 59.98C380.371 58.72 378.341 57.47 377.461 58.72L377.481 58.71Z" fill="#FAEDEC"/>
<path d="M360.901 258.75L250.261 323.21L249.061 298.63L359.781 235.83L360.901 258.75Z" fill="#BF4D17"/>
<path d="M249.061 298.63L134.431 263.22L257.101 209.62L359.781 235.83L249.061 298.63Z" fill="#FF6822"/>
<path d="M135.621 287.52L250.251 322.93L249.061 298.63L134.431 263.22L135.621 287.52Z" fill="white"/>
<path d="M134.551 265.71L249.181 301.11L249.061 298.63L134.431 263.22L134.551 265.71Z" fill="#BF4D17"/>
<path d="M135.631 287.8L250.261 323.21L250.141 320.72L135.511 285.31L135.631 287.8Z" fill="#BF4D17"/>
<path d="M242.04 318.29L250.14 320.72L249.18 301.11L241.07 298.61L242.04 318.29Z" fill="#8F3B14"/>
<path d="M145.611 283.15L149.481 280.92L153.711 285.59L153.371 278.75L145.261 276.25L145.611 283.15Z" fill="#8F3B14"/>
<path d="M345.571 227.59L248.521 284.03L247.491 262.8L344.641 208.51L345.571 227.59Z" fill="white"/>
<path d="M344.731 210.36L247.591 265.01L247.491 262.8L344.641 208.51L344.731 210.36Z" fill="#D0BCFF"/>
<path d="M345.641 228.96L248.541 284.32L248.431 282.12L345.551 227.11L345.641 228.96Z" fill="#D0BCFF"/>
<g style="mix-blend-mode:multiply">
<path d="M345.801 232.21L249.241 287.9L248.541 284.37L341.901 231.07L345.801 232.21Z" fill="#E2D6D6"/>
</g>
<path d="M344.641 208.51L254.431 185.94L148.081 232.36L152.711 238.6L152.481 233.83L247.491 262.8L344.641 208.51Z" fill="#D0BCFE"/>
<path d="M151.911 254.43L247.991 284.11C248.251 284.19 248.521 284 248.511 283.74L247.511 263.29L153.501 234.25C151.101 233.51 148.651 235.23 148.761 237.57L149.441 251.41C149.511 252.79 150.491 253.99 151.901 254.43H151.911Z" fill="white"/>
<path d="M233.381 275.47L236.721 273.54L240.371 277.57L240.081 266.11L233.081 263.95L233.381 275.47Z" fill="#D0BCFF"/>
<path d="M157.101 255.94L149.121 253.49L148.081 232.36L156.071 234.81L157.101 255.94Z" fill="#D0BCFF"/>
<path d="M150.831 254.06L149.121 253.49L148.081 232.36L149.801 232.93L150.831 254.06Z" fill="#D0BCFF"/>
<path d="M148.191 234.51L247.591 264.95L247.491 262.8L148.081 232.36L148.191 234.51Z" fill="#D0BCFF"/>
<path d="M149.091 253.53L248.581 284.29L248.481 282.15L148.971 251.5L149.091 253.53Z" fill="#D0BCFF"/>
<g style="mix-blend-mode:multiply">
<path d="M149.491 256.75L249.241 287.9L248.471 284.29L153.491 254.87L149.491 256.75Z" fill="#E2D6D6"/>
</g>
<path d="M209.12 217.8C212.55 222.47 208.64 235.06 199.08 249C190.28 261.84 176.69 275.82 159.62 285.79C124.02 306.59 88.89 305.71 82.22 296.32L49.04 247.63L177.96 172.3C177.96 172.3 208.87 217.46 209.12 217.8Z" fill="#3D3A3A"/>
<path d="M206.39 154.18L135.98 249.53L132.21 244L202.82 148.95L206.39 154.18Z" fill="#333030"/>
<path d="M202.83 148.95L164.31 200.8L132.21 244L26.6004 267.76L22.1104 268.48L97.1003 174.36L202.83 148.95Z" fill="#3D3A3A"/>
<path d="M25.5004 273.45L135.99 249.55L132.21 244L22.1104 268.48L25.5004 273.45Z" fill="#333030"/>
<g style="mix-blend-mode:multiply">
<path d="M202.83 148.95L164.31 200.8L162.21 203.65C168.46 162.79 97.1104 174.36 97.1104 174.36L202.84 148.95H202.83Z" fill="#E2D6D6"/>
</g>
<g style="mix-blend-mode:multiply">
<path d="M209.12 217.8C212.55 222.47 208.64 235.06 199.08 249C199.08 249 202.06 229.87 194.01 218.07C183.31 202.37 169.16 204.75 169.16 204.75L185.16 183C185.16 183 208.86 217.46 209.11 217.8H209.12Z" fill="#EEE1E1"/>
</g>
<path d="M119.77 202.75C120.16 203.32 120.16 204.07 119.83 204.89C119.27 206.31 117.72 207.94 115.56 209.2C112.16 211.19 108.54 211.52 107.46 209.94C106.67 208.78 107.48 206.92 109.31 205.23C109.97 204.61 110.77 204.02 111.67 203.49C115.07 201.5 118.69 201.17 119.77 202.75Z" fill="#FF6822"/>
<path d="M113.62 206.35L79.1601 251.78C79.1601 251.78 72.2601 258.28 66.8301 274.9" stroke="#FF6822" stroke-width="2.24" stroke-miterlimit="10"/>
<path d="M119.771 202.75C120.161 203.32 120.161 204.07 119.831 204.89C115.241 202.42 111.141 204.16 109.311 205.23C109.971 204.61 110.771 204.02 111.671 203.49C115.071 201.5 118.691 201.17 119.771 202.75Z" fill="#BF4D17"/>
<path d="M76.5396 294.18C79.2896 305.38 79.3896 314.9 76.7796 315.45C74.1696 316 69.8196 307.37 67.0796 296.17C64.3396 284.97 64.2296 275.45 66.8396 274.9C67.5696 274.75 68.4296 275.3 69.3396 276.43C71.7396 279.35 74.5596 286.1 76.5396 294.19V294.18Z" fill="#FF6822"/>
<path d="M76.5394 294.18C79.2894 305.38 79.3894 314.9 76.7794 315.45C76.9094 290.65 66.8994 278.54 66.8994 278.54L69.3394 276.43C71.7394 279.35 74.5594 286.1 76.5394 294.19V294.18Z" fill="#BF4D17"/>
<path d="M71.7499 274.63C72.1599 276.3 71.5099 277.97 70.1999 279.02C69.6199 279.49 68.9099 279.84 68.0999 280.01C65.4899 280.56 62.8899 279.04 62.2899 276.62C61.8899 274.99 62.4999 273.37 63.7399 272.31C64.3399 271.8 65.0899 271.42 65.9499 271.24C68.5599 270.69 71.1599 272.21 71.7599 274.63H71.7499Z" fill="#FF6822"/>
<path d="M71.7502 274.63C72.1602 276.3 71.5102 277.97 70.2002 279.02C70.1202 278.85 70.0502 278.66 70.0002 278.46C68.3802 272.62 64.6802 272.3 63.7402 272.31C64.3402 271.8 65.0902 271.42 65.9502 271.24C68.5602 270.69 71.1602 272.21 71.7602 274.63H71.7502Z" fill="#BF4D17"/>
<path d="M332.087 148.527L317.161 153.098L352.927 269.864L367.852 265.292L332.087 148.527Z" fill="#EBC827"/>
<path d="M323.245 150.748L321.591 151.255L357.494 268.47L359.148 267.963L323.245 150.748Z" fill="#3D3A3A"/>
<path d="M327.381 149.472L325.727 149.978L361.633 267.202L363.287 266.696L327.381 149.472Z" fill="#3D3A3A"/>
<path d="M367.721 264.837L352.441 269.517L353.352 272.49L368.632 267.81L367.721 264.837Z" fill="#3D3A3A"/>
<path d="M353.342 272.49L368.621 267.81L369.09 269.34C369.722 271.405 368.561 273.591 366.496 274.223L358.684 276.616C356.619 277.249 354.433 276.088 353.801 274.023L353.332 272.493L353.342 272.49Z" fill="#FF6822"/>
<path d="M332.1 148.5L317.17 153.07L319.82 142.62L320.99 137.99L324.41 141.21L332.1 148.5Z" fill="#FBE5C6"/>
<path d="M324.41 141.21L319.82 142.62L320.99 137.99L324.41 141.21Z" fill="#3D3A3A"/>
<path d="M98.1906 80.57C98.9606 79.33 98.5806 77.7 97.3406 76.93L81.9406 67.35C80.7006 66.58 79.0706 66.96 78.3006 68.2L76.9006 70.44L75.7706 72.25L53.2606 108.42C52.4906 109.66 52.8706 111.29 54.1106 112.06L107.601 145.35C108.841 146.12 110.471 145.74 111.241 144.5L133.481 108.76C134.251 107.52 133.871 105.89 132.631 105.12L99.0306 84.21C97.7906 83.44 97.4106 81.81 98.1806 80.57H98.1906Z" fill="#D1B223"/>
<path d="M107.601 145.35L54.1106 112.06C52.8706 111.29 52.4906 109.66 53.2606 108.42L79.4606 75.14C80.2306 73.9 81.8606 73.52 83.1006 74.29L136.591 107.58C137.831 108.35 138.211 109.98 137.441 111.22L111.241 144.5C110.471 145.74 108.841 146.12 107.601 145.35Z" fill="#EBC827"/>
<g style="mix-blend-mode:multiply">
<path d="M232.3 206.96C229.91 205.08 226.04 207.5 225.71 210.52C225.37 213.54 227.45 216.34 229.87 218.18C237.06 223.66 246.95 223.34 255.97 222.76L272.32 221.72C276.53 221.45 281.32 220.87 283.75 217.42C286.55 213.44 284.25 207.39 279.98 205.07C275.71 202.75 270.34 203.48 265.93 205.53C262.05 207.33 258.47 210.13 254.22 210.57C246.65 211.35 236.2 203.56 229.21 206.56" fill="#F2E5E5"/>
</g>
<path d="M294.53 98.77C293.03 99.12 287.64 99.2 282.63 99.6C281.65 96.8 280.12 90.68 277.95 82.93C277.51 81.37 275.32 78.56 272.87 77.47C271.35 76.8 269.06 78.04 269.72 81C270.09 82.66 270.55 84.99 272.44 90.37C275.1 97.91 277.02 101.52 278.22 103.31C278.37 103.62 278.58 103.9 278.83 104.14C278.96 104.29 279.11 104.4 279.28 104.48C279.73 104.76 280.28 104.93 280.9 104.91C285.52 104.73 285.21 104.58 291.14 102.81C295.26 101.58 294.59 102.48 295.41 101.42C296.08 100.56 295.73 98.48 294.52 98.77H294.53Z" fill="#BF4D17"/>
<path d="M256.05 90.76C257.08 94.61 257.521 98.59 257.911 102.55C258.191 105.45 257.861 108.44 257.281 111.29C256.921 113.02 256.461 114.72 255.951 116.41C255.761 117.05 254.121 122.2 254.021 122.76C254.021 122.76 276.621 124.31 277.941 124.4C278.031 119.7 273.7 104.61 277.96 95.32C280.91 88.89 277.601 88.46 275.721 82.81C275.261 81.43 271.921 78.65 270.571 78.21C269.851 77.98 269.11 77.86 268.37 77.75C264.34 77.15 255.91 74.86 254.62 80.56C254.27 82.11 254.87 87.05 255.43 88.73C255.65 89.41 255.861 90.09 256.041 90.78L256.05 90.76Z" fill="#FF6822"/>
<path d="M276.911 171.7C276.961 171.22 276.981 170.77 276.971 170.35C277.061 169.64 277.111 168.85 277.101 167.95C277.071 164.33 277.531 148.87 277.771 139.63C278.301 131.56 277.941 124.38 277.941 124.38L254.021 122.74C253.081 126.24 252.691 129.16 252.581 131.48C251.931 135.09 248.351 161.16 247.391 165.94C247.341 166.19 247.301 166.42 247.261 166.65C242.071 174.43 238.171 204.02 237.201 209.14C237.071 209.82 237.451 209.77 237.861 209.72C239.061 209.57 238.631 208.43 240.311 208.65C241.201 208.76 241.371 210.01 241.371 210.01C243.701 203.15 251.491 179.01 255.041 171.77C255.581 170.68 255.851 169.69 255.961 168.8C258.821 160.83 263.351 147.1 264.631 141.18C265.311 147.96 266.911 163.28 268.301 170.44C265.161 180.14 268.431 200.59 267.931 212.21C269.301 210.25 270.501 209.83 271.041 209.91C271.921 210.04 272.361 210.78 272.361 210.78C273.241 195.18 276.031 179.72 276.921 171.68L276.911 171.7Z" fill="#072C6E"/>
<path d="M272.65 210.78C272.89 211.33 274.11 212.65 275.86 213.58C277.61 214.51 281.43 215.15 279.25 215.72C277.07 216.29 274.61 215.69 273.37 215.4C272.13 215.11 270.91 215 269.42 214.89C267.46 214.74 267.46 214.62 267.87 212.43C268.44 209.42 271.88 209 272.65 210.78Z" fill="#21103F"/>
<path d="M241.35 209.59C241.59 210.14 241.7 212.73 243.45 213.66C245.2 214.59 249.02 215.23 246.84 215.8C244.66 216.37 242.2 215.77 240.96 215.48C239.71 215.19 239.61 213.81 238.12 213.7C236.16 213.55 236.16 213.43 236.57 211.24C237.14 208.23 240.58 207.81 241.35 209.59Z" fill="#21103F"/>
<path d="M259.671 87.74C260.001 87.93 260.331 88.13 260.671 88.32L258.721 94.35C259.011 92.39 259.331 90.17 259.681 87.74H259.671Z" fill="#FF4D2C"/>
<path d="M261.981 67.16C261.931 67.42 261.141 72.92 260.781 77.15C260.601 79.23 261.971 81.3 263.461 81.46C263.481 81.46 263.501 81.46 263.531 81.46C265.001 81.56 266.851 79.83 266.861 77.78C266.881 74.07 267.311 70.3 267.321 70.24L261.981 67.15V67.16Z" fill="#D68952"/>
<path d="M259.37 62.96C259.52 67.71 259.59 68.77 261.52 70.84C263.45 72.91 266.34 74 268.58 74.15C271 74.32 272.96 71.89 273.64 69.93C274.35 67.9 275.34 63.09 275.01 57.88C274.85 55.24 271.83 51.84 268.49 51.61C265.16 51.38 259 51.35 259.37 62.96Z" fill="#EB975A"/>
<path d="M275.01 55.18C274.51 54.12 272.87 52.45 271.5 51.83C268.86 49.92 265.59 49.99 262.99 50.84C262.15 50.51 261.28 50.22 260.4 49.97L260.46 49.86C260.41 49.83 255.37 47.11 251.3 48.91C249.04 49.91 247.5 52.1 246.72 55.42L246.84 55.45C246.29 57.23 246.27 59.17 246.92 60.92C247.58 62.67 248.79 64.18 249.44 65.93C250.84 69.76 249.39 73.79 245.74 75.61C247.01 76.7 249.02 76.37 250.42 75.46C251.83 74.55 252.74 72.55 254.03 71.48C256.19 69.68 256.05 64.35 258.85 64.55L263.1 61.66C266.52 60.91 270.77 59.93 273.12 58.02C274.03 58.65 274.81 59.3 275.05 60.14C275.45 61.55 275.98 57.23 275.02 55.19L275.01 55.18ZM250.69 50.49C249.21 51.34 248.06 52.67 247.33 54.2C248.16 51.68 249.53 49.97 251.41 49.14C254.57 47.74 258.35 49.16 259.77 49.8C256.65 49.02 253.43 48.93 250.7 50.49H250.69Z" fill="#0F0F0F"/>
<path d="M260.78 63.12C261.34 64.8 261.07 66.4 260.19 66.69C259.31 66.98 258.15 65.86 257.59 64.18C257.03 62.5 257.3 60.91 258.18 60.61C259.06 60.32 260.22 61.44 260.78 63.12Z" fill="#EB975A"/>
<path d="M293.311 107.81L279.301 110.83V92.12L293.311 89.1V107.81Z" fill="#E0D4D4"/>
<path d="M274.33 101.44C275.46 100.55 276.95 99.67 277.98 99.56C279.01 99.45 277.26 100.84 276.46 101.57C275.66 102.3 273.38 102.19 274.33 101.44Z" fill="#EB975A"/>
<path d="M275.88 101.41C278.8 100.94 280.28 100.22 281.62 100.73C282.96 101.24 281.03 103.11 280.03 103.43C279.03 103.75 275.55 105.1 274.51 104.42C273.47 103.74 273.71 101.76 275.87 101.42L275.88 101.41Z" fill="#EB975A"/>
<path d="M273.97 101.32C272.44 101.6 263.24 101.26 257.92 101.4C258.25 98.16 259.19 92.42 260.17 85.26C260.39 83.66 259.5 80.2 257.68 78.23C256.55 77.01 253.96 77.24 253.39 80.21C253.07 81.88 252.56 84.2 252.16 89.89C251.5 99.22 252.06 103.23 252.51 105C252.61 105.4 252.87 105.71 253.21 105.93C253.72 106.47 254.45 106.84 255.34 106.85C260.15 106.89 261.92 106.81 268.17 105.27C272.51 104.2 273.86 105.2 274.76 104.13C275.5 103.26 275.24 101.09 273.96 101.33L273.97 101.32Z" fill="#BF4D17"/>
<path d="M293.151 100C293.151 99.17 293.211 97.9 293.611 96.76C293.841 96.11 294.571 95.63 295.111 96.22C295.581 96.73 296.391 98.8 296.041 99.79C295.751 100.63 295.001 101.41 294.271 101.74C293.541 102.06 293.141 101.36 293.151 100.01V100Z" fill="#EB975A"/>
<path d="M338.681 92.58L331.591 86.3L372.831 74.87L358.471 109.71L346.901 99.35L342.091 103.78L338.681 92.58Z" fill="#D0BCFE"/>
<g style="mix-blend-mode:multiply">
<path d="M372.831 74.87L346.901 99.35L342.091 103.78L338.681 92.58L372.831 74.87Z" fill="#A9B3D1"/>
</g>
<path d="M124.07 16.91L128.51 8.54001L85.8701 12.28L111.53 39.88L118.73 26.13L124.79 28.59L124.07 16.91Z" fill="#FF6822"/>
<g style="mix-blend-mode:multiply">
<path d="M85.8701 12.28L118.73 26.13L124.79 28.59L124.07 16.91L85.8701 12.28Z" fill="#A9B3D1"/>
</g>
<path d="M336.85 107.91C336.27 108.24 335.7 108.58 335.12 108.92" stroke="#E9DDFF" stroke-width="0.75" stroke-linecap="round" stroke-linejoin="round"/>
<path d="M325.44 114.86C321.4 117.57 317.57 120.55 314.23 124.07C307.83 130.82 303.31 139.95 304.23 149.2C304.78 154.79 307.23 159.99 309.28 165.22C311.33 170.45 313.02 176.11 311.97 181.63C311.41 184.58 309.84 187.44 307.64 189.45" stroke="#E9DDFF" stroke-width="0.75" stroke-linecap="round" stroke-linejoin="round" stroke-dasharray="3.79 11.36"/>
<path d="M302.69 192.11C302.05 192.25 301.38 192.32 300.7 192.31" stroke="#E9DDFF" stroke-width="0.75" stroke-linecap="round" stroke-linejoin="round"/>
<path d="M131.751 33.94C132.161 34.46 132.571 34.99 132.981 35.52" stroke="#E9DDFF" stroke-width="0.75" stroke-linecap="round" stroke-linejoin="round"/>
<path d="M139.381 45.36C140.461 47.58 141.301 49.9 141.771 52.35C143.091 59.28 140.521 67.46 134.131 70.46C125.601 74.47 116.201 67.86 108.331 62.67C97.8005 55.73 85.9405 50.8 73.5905 48.23C64.7305 46.39 55.2405 45.81 46.8605 49.23C37.2005 53.17 30.2105 62.03 26.2105 71.67C22.2105 81.31 20.8205 91.8 19.4705 102.14C18.7805 107.44 18.0805 112.84 18.9105 118.12C19.7405 123.41 22.3105 128.67 26.8405 131.51C33.4905 135.68 42.0705 133.68 49.9105 134.12C59.9205 134.67 69.6105 139.7 75.8305 147.56C80.4205 153.36 83.0705 160.64 83.4405 168.02" stroke="#E9DDFF" stroke-width="0.75" stroke-linecap="round" stroke-linejoin="round" stroke-dasharray="3.92 11.76"/>
<path d="M83.2509 173.88C83.1709 174.54 83.0709 175.2 82.9609 175.86" stroke="#E9DDFF" stroke-width="0.75" stroke-linecap="round" stroke-linejoin="round"/>
<path d="M147.581 330.02C147.471 329.35 147.471 328.68 147.581 328.03" stroke="#E9DDFF" stroke-width="0.75" stroke-linecap="round" stroke-linejoin="round"/>
<path d="M156.261 321.01C160.491 320.94 164.491 323.39 167.401 326.52C170.461 329.81 172.601 333.85 175.121 337.57C184.591 351.55 200.081 361.3 216.791 363.78C233.491 366.26 251.151 361.43 264.271 350.79C275.081 342.03 282.571 329.87 292.361 319.97C300.221 312.01 310.731 305.34 321.571 304.77" stroke="#E9DDFF" stroke-width="0.75" stroke-linecap="round" stroke-linejoin="round" stroke-dasharray="4.02 12.05"/>
<path d="M327.561 305.11C328.211 305.22 328.871 305.36 329.521 305.52" stroke="#E9DDFF" stroke-width="0.75" stroke-linecap="round" stroke-linejoin="round"/>
<path d="M250.171 7.57001C255.441 6.37001 260.361 10.87 262.841 15.67C265.321 20.47 266.541 26.01 270.071 30.11C276.101 37.1 286.591 37.59 295.821 37.37C305.051 37.15 315.431 37.17 321.971 43.68" stroke="#E9DDFF" stroke-width="0.75" stroke-linecap="round" stroke-linejoin="round" stroke-dasharray="4 12"/>
<path d="M184.52 71.2689L182.633 70.4692L172.514 94.3542L174.402 95.1539L184.52 71.2689Z" fill="#3D3A3A"/>
<path d="M163.631 118.28C160.981 117.16 159.741 114.1 160.861 111.45L170.261 89.27C171.381 86.62 174.441 85.38 177.091 86.5C179.741 87.62 180.981 90.68 179.861 93.33L170.461 115.51C169.341 118.16 166.281 119.4 163.631 118.28Z" fill="#D0BCFE"/>
<path d="M218.935 54.9987C223.092 41.0178 215.128 26.314 201.148 22.1568C187.167 17.9995 172.463 25.9631 168.306 39.944C164.148 53.9248 172.112 68.6286 186.093 72.7859C200.074 76.9431 214.778 68.9795 218.935 54.9987Z" stroke="#D0BCFF" stroke-width="7" stroke-miterlimit="10"/>
<path d="M206.981 65.2881C217.075 57.9942 219.346 43.898 212.052 33.8034C204.758 23.7087 190.662 21.4383 180.567 28.7322C170.472 36.026 168.202 50.1222 175.496 60.2169C182.79 70.3115 196.886 72.582 206.981 65.2881Z" fill="#D0EAFF"/>
<path opacity="0.35" d="M190.61 44.56C195.515 44.56 199.49 41.2738 199.49 37.22C199.49 33.1662 195.515 29.88 190.61 29.88C185.706 29.88 181.73 33.1662 181.73 37.22C181.73 41.2738 185.706 44.56 190.61 44.56Z" fill="white"/>
</g>
<defs>
<clipPath id="clip0_16_2019">
<rect width="426.88" height="364.79" fill="white"/>
</clipPath>
</defs>
</svg>
