<svg width="508" height="407" viewBox="0 0 508 407" fill="none" xmlns="http://www.w3.org/2000/svg">
<path d="M153.373 10.1567C97.3154 40.2643 140.153 110.779 55.4256 158.521C-0.899233 190.256 -36.7474 296.597 61.6679 382.527H448.206C448.206 382.527 512.077 365.005 487.866 290.722C455.552 191.571 539.309 171.15 494.477 78.4644C459.955 7.10247 382.105 7.10247 346.848 57.1628C320.809 94.148 302.785 120.321 288.093 83.6031C273.402 46.8855 222.472 -26.9622 153.373 10.1567Z" fill="#FCFAFF"/>
<path d="M491.502 382.528H16.4808C10.3246 382.528 5.33398 387.518 5.33398 393.674V395.268C5.33398 401.425 10.3246 406.415 16.4808 406.415H491.502C497.659 406.415 502.649 401.425 502.649 395.268V393.674C502.649 387.518 497.659 382.528 491.502 382.528Z" fill="#9C81CC"/>
<path d="M345.58 63.037H456.39C460.637 63.037 464.082 66.4814 464.082 70.7284V172.889C464.082 177.136 460.637 180.58 456.39 180.58H345.58C341.333 180.58 337.889 177.136 337.889 172.889V70.7284C337.889 66.4814 341.333 63.037 345.58 63.037Z" fill="#C3CBFA"/>
<path d="M349.538 67.2394H452.446C456.38 67.2394 459.579 70.4386 459.579 74.3734V169.244C459.579 173.19 456.38 176.389 452.434 176.389H349.527C345.581 176.389 342.382 173.19 342.382 169.244V74.3734C342.382 70.4274 345.581 67.2283 349.527 67.2283L349.538 67.2394Z" fill="#EBF3FF"/>
<path d="M462.197 70.0597C462.197 71.3527 461.149 72.4005 459.856 72.4005H341.332C340.039 72.4005 338.991 71.3527 338.991 70.0597C338.991 68.7667 340.039 67.7189 341.332 67.7189H459.856C461.149 67.7189 462.197 68.7667 462.197 70.0597Z" fill="#C3CBFA"/>
<path d="M462.197 75.7779C462.197 77.0709 461.149 78.1187 459.856 78.1187H341.332C340.039 78.1187 338.991 77.0709 338.991 75.7779C338.991 74.4849 340.039 73.4371 341.332 73.4371H459.856C461.149 73.4371 462.197 74.4849 462.197 75.7779Z" fill="#C3CBFA"/>
<path d="M462.197 81.4963C462.197 82.7894 461.149 83.8372 459.856 83.8372H341.332C340.039 83.8372 338.991 82.7894 338.991 81.4963C338.991 80.2033 340.039 79.1555 341.332 79.1555H459.856C461.149 79.1555 462.197 80.2033 462.197 81.4963Z" fill="#C3CBFA"/>
<path d="M462.197 87.2145C462.197 88.5076 461.149 89.5554 459.856 89.5554H341.332C340.039 89.5554 338.991 88.5076 338.991 87.2145C338.991 85.9215 340.039 84.8737 341.332 84.8737H459.856C461.149 84.8737 462.197 85.9215 462.197 87.2145Z" fill="#C3CBFA"/>
<path d="M462.197 92.9218C462.197 94.2149 461.149 95.2627 459.856 95.2627H341.332C340.039 95.2627 338.991 94.2149 338.991 92.9218C338.991 91.6288 340.039 90.581 341.332 90.581H459.856C461.149 90.581 462.197 91.6288 462.197 92.9218Z" fill="#C3CBFA"/>
<path d="M462.197 98.64C462.197 99.9331 461.149 100.981 459.856 100.981H341.332C340.039 100.981 338.991 99.9331 338.991 98.64C338.991 97.347 340.039 96.2992 341.332 96.2992H459.856C461.149 96.2992 462.197 97.347 462.197 98.64Z" fill="#C3CBFA"/>
<g style="mix-blend-mode:multiply">
<path d="M252.626 164.785L133.901 160.717V80.4263L249.572 78.8434L252.626 164.785Z" fill="#DFE7F4"/>
</g>
<g style="mix-blend-mode:multiply">
<path d="M216.891 74.0504L119.824 72.1331V13.4674L214.327 11.4833L216.891 74.0504Z" fill="#DFE7F4"/>
</g>
<path d="M296.058 258.207C296.058 258.207 298.945 306.138 297.229 313.306C295.512 320.473 285.893 363.968 284.432 377.835H277.61C277.61 377.835 271.714 342.912 283.217 314.51C284.744 310.731 270.398 257.148 270.398 257.148L296.058 258.207Z" fill="#F9A88C"/>
<path d="M298.824 380.332C298.824 380.332 291.054 377.913 289.784 376.475C288.513 375.037 289.561 372.685 287.242 372.295C284.924 371.904 284.11 375.003 284.623 376.943C284.623 376.943 280.966 378.113 276.485 376.943C276.485 376.943 274.613 380.198 276.106 382.75L298.812 383.14V380.332H298.824Z" fill="#E5AC5A"/>
<path d="M293.739 382.104C293.739 382.104 294.185 380.075 296.057 379.161C296.057 379.161 301.129 380.209 301.43 382.695C301.43 382.695 301.954 383.742 300.906 383.742H276.194C274.767 383.742 274.912 382.104 276.784 382.104H293.739Z" fill="#FCFCFC"/>
<path d="M270.386 257.148L296.046 258.207C296.046 258.207 298.933 306.138 297.216 313.306C296.715 315.401 295.544 320.585 294.095 327.228C289.001 330.294 283.316 333.348 277.843 334.117C278.935 327.563 280.63 320.874 283.205 314.51C284.732 310.731 270.386 257.148 270.386 257.148Z" fill="#EF8E7B"/>
<path d="M282.858 274.515C282.858 274.515 280.751 306.15 279.034 313.317C277.318 320.484 267.698 363.979 266.238 377.846H259.427C259.427 377.846 253.53 342.923 265.034 314.521C266.561 310.742 257.922 265.029 257.922 265.029L282.869 274.526L282.858 274.515Z" fill="#F9A88C"/>
<path d="M280.793 380.332C280.793 380.332 273.024 377.913 271.753 376.475C270.483 375.037 271.53 372.685 269.212 372.295C266.893 371.905 266.08 375.004 266.592 376.943C266.592 376.943 262.936 378.114 258.455 376.943C258.455 376.943 256.582 380.198 258.076 382.751L280.782 383.141V380.332H280.793Z" fill="#FFCD74"/>
<path d="M275.722 382.104C275.722 382.104 276.168 380.075 278.041 379.161C278.041 379.161 283.112 380.209 283.413 382.695C283.413 382.695 283.937 383.743 282.89 383.743H258.177C256.75 383.743 256.895 382.104 258.768 382.104H275.722Z" fill="#FCFCFC"/>
<path d="M260.206 331.119C261.298 325.534 262.848 319.905 265.033 314.51C266.56 310.731 257.921 265.018 257.921 265.018L282.867 274.515C282.867 274.515 280.761 306.15 279.044 313.317C278.52 315.491 277.272 321.031 275.745 328.075C272.211 328.711 268.678 330.283 265.144 330.572C263.572 330.829 261.911 330.996 260.217 331.13L260.206 331.119Z" fill="#EF8E7B"/>
<path d="M295.522 254.016C295.522 254.016 314.037 305.09 310.548 315.022C307.07 324.954 297.361 316.237 292.657 319.96C287.953 323.683 275.179 327.44 271.333 319.983C267.477 312.525 264.523 323.94 254.335 322.669C244.146 321.398 251.28 272.988 265.035 254.907L295.522 254.027V254.016Z" fill="#5D53D6"/>
<g style="mix-blend-mode:multiply" opacity="0.5">
<path d="M295.523 254.016C295.523 254.016 297.685 259.979 300.394 268.228C296.058 269.688 292.045 272.765 290.373 276.265C287.653 281.972 290.64 289.318 286.706 294.479C283.172 298.96 278.825 292.171 276.239 289.998C271.892 286.464 266.719 289.451 262.918 292.305C258.972 295.527 254.87 300.074 249.888 301.691C251.348 285.94 257.089 265.352 265.036 254.907L295.523 254.027V254.016Z" fill="#5D53D6"/>
</g>
<path d="M291.182 189.844C295.117 192.118 311.826 246.748 334.9 259.422L323.53 259.99C323.53 259.99 295.507 238.065 289.577 216.262C283.647 194.458 286.032 186.867 291.182 189.844Z" fill="#F9A88C"/>
<path d="M279.661 186.31C279.661 186.31 266.34 194.291 260.566 212.461C254.792 230.63 258.961 264.516 258.961 264.516C258.961 264.516 281.244 271.739 299.391 258.541C299.391 258.541 296.593 216.696 295.746 204.613C294.899 192.53 292.123 186.065 279.661 186.31Z" fill="#F25860"/>
<g style="mix-blend-mode:multiply" opacity="0.5">
<path d="M260.554 212.461C264.857 198.906 273.362 191.025 277.408 187.893C279.492 189.052 281.666 190.512 281.844 192.965C282.279 196.42 278.823 199.876 276.661 202.027C271.701 207.857 265.871 213.252 261.122 219.294C250.767 232.458 272.994 247.35 280.975 255.989C283.594 258.731 286.214 261.384 288.911 263.981C287.161 264.594 285.411 265.062 283.695 265.43C274.944 260.18 266.06 254.986 257.723 249.156C257.188 237.82 257.299 222.66 260.543 212.461H260.554Z" fill="#C64A50"/>
</g>
<path d="M278.02 189.844C282.757 195.183 250.353 217.008 250.353 227.263C250.353 228.746 269.972 251.329 273.104 252.622C273.104 252.622 282.166 247.406 284.641 248.766C287.116 250.126 291.563 254.673 290.905 254.952C290.248 255.231 284.307 251.831 282.166 252.622C280.026 253.414 277.217 258.029 272.446 255.888C272.446 255.888 238.984 235.835 238.003 227.263C237.011 218.692 268.199 178.764 278.031 189.844H278.02Z" fill="#F9A88C"/>
<path d="M313.889 178.329C308.728 186.577 298.673 189.643 291.428 185.173C284.183 180.703 282.499 170.392 287.66 162.144C292.821 153.895 302.876 150.83 310.121 155.299C317.367 159.769 319.05 170.08 313.889 178.329Z" fill="#F9A88C"/>
<path d="M297.147 177.771C297.147 177.771 289.801 191.906 289.21 192.017C288.608 192.129 282.377 191.939 281.028 186.8L288.04 175.107L297.147 177.783V177.771Z" fill="#F9A88C"/>
<path d="M318.113 171.44C318.113 171.44 307.557 168.52 299.698 162.98C299.698 162.98 287.492 187.246 282.666 188.004C277.828 188.762 264.262 172.711 267.506 164.73C270.75 156.748 287.336 131.044 306.721 147.151C315.805 147.786 325.247 159.39 318.113 171.44Z" fill="#1C1855"/>
<path d="M309.618 149.726C312.583 151.086 315.124 152.802 316.763 155.678C318.669 159.022 318.636 163.526 317.465 167.07C317.354 167.416 316.819 167.249 316.93 166.914C318.112 163.314 317.922 159.379 316.261 155.946C314.901 153.126 312.037 151.465 309.306 150.205C308.982 150.06 309.283 149.581 309.607 149.737L309.618 149.726Z" fill="#5D53D6"/>
<path d="M306.271 149.871C305.992 149.648 306.282 149.18 306.572 149.403C312.357 153.917 314.286 160.516 311.688 167.394C311.566 167.728 311.031 167.572 311.153 167.237C313.661 160.605 311.867 154.24 306.282 149.882L306.271 149.871Z" fill="#5D53D6"/>
<path d="M304.109 150.506C306.394 154.374 307.464 159.769 304.376 163.492C304.142 163.771 303.775 163.358 303.997 163.08C306.907 159.557 305.759 154.374 303.619 150.774C303.44 150.462 303.931 150.205 304.109 150.506Z" fill="#5D53D6"/>
<path d="M296.183 164.094C291 170.504 286.418 177.359 281.826 184.203C281.625 184.504 281.157 184.203 281.358 183.902C285.95 177.058 290.531 170.214 295.715 163.793C295.938 163.515 296.417 163.816 296.183 164.094Z" fill="#5D53D6"/>
<path d="M299.862 154.474C289.34 160.371 282.228 170.214 276.521 180.58C276.354 180.892 275.874 180.602 276.053 180.279C281.805 169.823 289.005 159.925 299.606 153.973C299.918 153.794 300.186 154.285 299.874 154.463L299.862 154.474Z" fill="#5D53D6"/>
<path d="M299.787 148.667C300.132 148.567 300.255 149.102 299.92 149.213C287.336 153.014 279.745 164.44 272.856 174.851C272.655 175.152 272.187 174.851 272.388 174.55C279.355 164.016 287.057 152.513 299.798 148.667H299.787Z" fill="#5D53D6"/>
<path d="M301.122 145.1C301.479 145.122 301.468 145.68 301.111 145.657C286.821 144.699 272.52 154.72 268.73 168.709C268.64 169.054 268.105 168.898 268.195 168.553C272.051 154.341 286.587 144.141 301.122 145.111V145.1Z" fill="#5D53D6"/>
<path d="M296.074 173.836C295.873 176.422 293.61 178.362 291.013 178.15C288.427 177.95 286.488 175.687 286.699 173.089C286.9 170.503 289.163 168.564 291.76 168.776C294.346 168.976 296.286 171.239 296.074 173.836Z" fill="#F9A88C"/>
<path d="M293.288 172.476C292.196 171.05 290.19 171.685 289.019 172.599C288.741 172.822 289.041 173.29 289.32 173.067C290.301 172.298 291.706 171.741 292.764 172.71C293.411 173.312 293.456 174.059 293.199 174.75C292.441 174.07 291.382 173.769 290.613 174.628C289.766 175.575 290.524 176.656 291.583 176.812C291.639 176.969 291.817 177.091 291.995 176.98C293.567 176.066 294.526 174.082 293.288 172.465V172.476ZM291.94 176.344C291.94 176.344 291.873 176.311 291.817 176.3C290.892 176.233 290.39 175.419 291.26 174.773C291.806 174.36 292.519 174.851 292.932 175.274C292.675 175.698 292.319 176.066 291.94 176.344Z" fill="#D17461"/>
<path d="M239.362 259.99L215.92 259.924C214.794 259.924 213.88 258.998 213.88 257.873C213.88 256.747 214.794 255.833 215.92 255.833L236.241 255.9L216.678 210.677H211.439C210.313 210.677 209.399 209.763 209.399 208.637C209.399 207.511 210.313 206.597 211.439 206.597H218.016C218.83 206.597 219.565 207.076 219.889 207.823L241.224 257.148C241.502 257.783 241.435 258.508 241.056 259.088C240.677 259.667 240.042 260.002 239.351 260.002L239.362 259.99Z" fill="#FCFCFC"/>
<path d="M206.345 246.882C206.345 247.818 205.587 248.587 204.639 248.587C203.703 248.587 202.934 247.829 202.934 246.882V176.022C202.934 175.085 203.692 174.316 204.639 174.316C205.575 174.316 206.345 175.074 206.345 176.022V246.882Z" fill="#FCFCFC"/>
<path d="M210.425 238.544C210.425 239.96 209.276 241.097 207.872 241.097C206.456 241.097 205.319 239.949 205.319 238.544V185.318C205.319 183.902 206.467 182.765 207.872 182.765C209.288 182.765 210.425 183.914 210.425 185.318V238.544Z" fill="#FCFCFC"/>
<path d="M211.449 257.783C211.449 258.631 210.758 259.311 209.921 259.311H180.817C179.97 259.311 179.29 258.619 179.29 257.783C179.29 256.936 179.981 256.256 180.817 256.256H209.921C210.769 256.256 211.449 256.947 211.449 257.783Z" fill="#FCFCFC"/>
<path d="M320.234 258.441C320.234 257.616 319.565 256.947 318.74 256.947H279.96C279.136 256.947 278.467 257.616 278.467 258.441C278.467 259.266 279.136 259.935 279.96 259.935H318.74C319.565 259.935 320.234 259.266 320.234 258.441Z" fill="#DFE7F4"/>
<path d="M345.582 211.914H295.187C293.34 211.914 291.843 213.411 291.843 215.258V256.568C291.843 258.415 293.34 259.912 295.187 259.912H345.582C347.428 259.912 348.926 258.415 348.926 256.568V215.258C348.926 213.411 347.428 211.914 345.582 211.914Z" fill="#FCFCFC"/>
<path d="M316.937 235.913C316.937 237.808 318.475 239.347 320.37 239.347C322.265 239.347 323.814 237.808 323.814 235.913C323.814 234.018 322.276 232.48 320.37 232.48C318.464 232.48 316.937 234.018 316.937 235.913Z" fill="#DFE7F4"/>
<path opacity="0.2" d="M293.446 212.416L348.077 258.775C347.464 259.478 346.572 259.935 345.569 259.935H295.174C293.324 259.935 291.83 258.441 291.83 256.591V215.281C291.83 214.066 292.477 213.018 293.446 212.427V212.416Z" fill="#DFE7F4"/>
<path d="M249.561 78.8434H132.586V159.134H249.561V78.8434Z" fill="#FCFCFC"/>
<path d="M184.195 127.901C183.838 127.901 183.481 127.867 183.124 127.8C182.824 127.744 182.623 127.455 182.679 127.154C182.734 126.853 183.024 126.663 183.325 126.708C184.273 126.886 185.231 126.775 186.301 126.373C186.591 126.262 186.914 126.418 187.015 126.697C187.126 126.986 186.981 127.31 186.691 127.41C185.811 127.733 184.997 127.901 184.183 127.901H184.195ZM180.26 126.34C180.137 126.34 180.015 126.295 179.914 126.217C179.045 125.526 178.253 124.713 177.506 123.732C177.317 123.486 177.362 123.141 177.607 122.951C177.852 122.762 178.198 122.806 178.387 123.052C179.089 123.966 179.814 124.713 180.616 125.348C180.862 125.537 180.895 125.894 180.706 126.128C180.594 126.262 180.438 126.34 180.271 126.34H180.26ZM189.434 125.861C189.255 125.861 189.077 125.771 188.965 125.615C188.798 125.359 188.865 125.014 189.121 124.846C189.746 124.423 190.381 123.977 191.005 123.52L191.841 122.918C192.098 122.74 192.443 122.795 192.622 123.052C192.8 123.297 192.744 123.654 192.488 123.832L191.663 124.423C191.028 124.891 190.381 125.348 189.746 125.771C189.645 125.838 189.545 125.861 189.434 125.861ZM209.743 125.549C208.851 125.549 207.937 125.326 206.956 124.857C206.678 124.724 206.555 124.389 206.689 124.111C206.823 123.832 207.157 123.72 207.425 123.843C208.261 124.244 208.996 124.423 209.732 124.423C209.933 124.423 210.133 124.412 210.345 124.378C210.646 124.345 210.936 124.545 210.98 124.846C211.025 125.147 210.813 125.437 210.512 125.482C210.245 125.515 209.955 125.526 209.732 125.537L209.743 125.549ZM213.5 124.211C213.321 124.211 213.143 124.122 213.043 123.966C212.864 123.709 212.931 123.364 213.187 123.185C213.377 123.052 213.566 122.918 213.767 122.762C214.414 122.249 215.06 121.692 215.695 121.101C215.918 120.889 216.275 120.9 216.487 121.134C216.699 121.357 216.688 121.714 216.453 121.926C215.796 122.528 215.127 123.107 214.458 123.642C214.235 123.81 214.023 123.966 213.812 124.111C213.711 124.177 213.611 124.211 213.5 124.211ZM204.348 123.185C204.248 123.185 204.136 123.152 204.047 123.096C203.233 122.561 202.275 121.97 201.216 121.558C200.926 121.447 200.781 121.123 200.893 120.833C201.004 120.544 201.327 120.41 201.617 120.51C202.776 120.956 203.802 121.591 204.66 122.149C204.917 122.316 204.995 122.662 204.827 122.918C204.716 123.085 204.538 123.174 204.359 123.174L204.348 123.185ZM194.985 122.115C194.784 122.115 194.595 122.004 194.494 121.814C194.349 121.547 194.45 121.201 194.728 121.056C195.932 120.421 197.036 120.064 198.084 119.953C198.396 119.931 198.663 120.142 198.697 120.454C198.73 120.755 198.507 121.034 198.195 121.068C197.292 121.157 196.322 121.469 195.252 122.048C195.174 122.093 195.085 122.115 194.996 122.115H194.985ZM176.124 121.146C175.924 121.146 175.734 121.045 175.634 120.856C175.054 119.819 174.53 118.749 174.096 117.846C173.962 117.567 174.073 117.233 174.352 117.099C174.631 116.966 174.965 117.077 175.099 117.356C175.522 118.247 176.035 119.295 176.604 120.298C176.749 120.566 176.659 120.911 176.392 121.056C176.303 121.101 176.213 121.123 176.124 121.123V121.146ZM218.415 119.696C218.282 119.696 218.148 119.652 218.036 119.552C217.813 119.34 217.791 118.994 218.003 118.76C218.705 118.002 219.407 117.177 220.165 116.252C220.355 116.018 220.712 115.973 220.946 116.174C221.18 116.364 221.224 116.72 221.024 116.954C220.255 117.902 219.53 118.738 218.817 119.507C218.705 119.63 218.56 119.685 218.404 119.685L218.415 119.696ZM173.148 115.149C172.947 115.149 172.747 115.037 172.646 114.836C172.067 113.666 171.565 112.752 171.075 111.938C170.919 111.671 170.997 111.336 171.264 111.169C171.521 111.013 171.866 111.091 172.033 111.359C172.546 112.195 173.059 113.142 173.65 114.346C173.783 114.625 173.672 114.959 173.393 115.093C173.315 115.137 173.226 115.149 173.148 115.149ZM222.673 114.547C222.551 114.547 222.439 114.513 222.339 114.435C222.094 114.246 222.049 113.9 222.239 113.655C222.874 112.819 223.509 111.972 224.145 111.125L224.245 110.98C224.423 110.734 224.78 110.679 225.025 110.868C225.271 111.047 225.326 111.403 225.137 111.648L225.037 111.782C224.401 112.629 223.766 113.477 223.13 114.324C223.019 114.469 222.852 114.547 222.685 114.547H222.673ZM148.848 111.927C148.659 111.927 148.48 111.838 148.38 111.671C148.213 111.414 148.291 111.069 148.558 110.902C149.104 110.556 149.673 110.177 150.275 109.787L151.356 109.074C151.612 108.906 151.958 108.984 152.125 109.241C152.292 109.497 152.214 109.843 151.958 110.01L150.877 110.712C150.275 111.102 149.695 111.481 149.149 111.838C149.06 111.894 148.948 111.927 148.848 111.927ZM169.592 109.519C169.436 109.519 169.28 109.453 169.18 109.33C168.433 108.483 167.653 107.803 166.783 107.245C166.527 107.078 166.449 106.733 166.616 106.476C166.783 106.22 167.129 106.142 167.385 106.309C168.333 106.922 169.191 107.669 170.016 108.594C170.216 108.828 170.194 109.174 169.971 109.386C169.86 109.475 169.737 109.531 169.603 109.531L169.592 109.519ZM226.686 109.196C226.564 109.196 226.452 109.163 226.352 109.085C226.107 108.895 226.062 108.55 226.252 108.304C226.931 107.413 227.623 106.532 228.336 105.663C228.525 105.429 228.882 105.384 229.116 105.585C229.35 105.785 229.384 106.131 229.194 106.365C228.492 107.223 227.801 108.093 227.132 108.973C227.021 109.118 226.853 109.196 226.686 109.196ZM154.499 108.36C154.31 108.36 154.12 108.26 154.009 108.081C153.853 107.814 153.953 107.48 154.221 107.324C155.324 106.699 156.328 106.209 157.286 105.819C157.565 105.707 157.899 105.841 158.011 106.12C158.122 106.409 157.988 106.733 157.71 106.844C156.796 107.212 155.837 107.691 154.778 108.293C154.689 108.338 154.6 108.371 154.499 108.371V108.36ZM164.03 106.008C164.03 106.008 163.952 106.008 163.907 105.997C162.938 105.785 161.89 105.763 160.786 105.941C160.485 105.986 160.195 105.785 160.151 105.473C160.106 105.172 160.307 104.882 160.619 104.838C161.856 104.648 163.049 104.671 164.141 104.905C164.442 104.972 164.632 105.261 164.565 105.562C164.509 105.83 164.275 106.008 164.019 106.008H164.03ZM230.955 104.046C230.822 104.046 230.688 104.002 230.576 103.901C230.354 103.69 230.331 103.344 230.543 103.11C231.357 102.229 232.137 101.449 232.928 100.702C233.151 100.49 233.508 100.502 233.72 100.736C233.932 100.959 233.921 101.315 233.686 101.527C232.917 102.241 232.148 103.01 231.368 103.868C231.256 103.991 231.112 104.046 230.955 104.046Z" fill="#F9CB7E"/>
<path d="M148.123 129.952C156.707 132.749 162.547 130.932 169.916 126.05C173.739 123.52 177.373 120.934 182.066 120.41C186.446 119.919 190.504 120.911 194.951 119.931C202.609 118.236 205.273 112.317 211.527 108.572C217.301 105.116 224.468 109.597 228.548 102.742C228.994 101.995 227.868 101.36 227.4 102.073C223.61 107.78 216.409 105.094 210.902 107.502C208.896 108.382 207.235 110.289 205.775 111.838C202.431 115.383 199.41 117.344 194.628 118.727C187.739 120.711 181.386 118.058 174.854 121.58C171.866 123.185 169.102 125.303 166.248 127.154C160.418 130.932 154.845 130.877 148.224 129.651C148.023 129.617 147.945 129.885 148.135 129.952H148.123Z" fill="#F2595E"/>
<path d="M227.523 150.451H147.399V94.5382H149.629V148.221H227.523V150.451Z" fill="#5C53D4"/>
<path d="M214.334 11.4832H118.639V70.1489H214.334V11.4832Z" fill="#FCFCFC"/>
<path d="M200.49 63.171H132.472V15.7078H134.367V61.276H200.49V63.171Z" fill="#5C53D4"/>
<path d="M154.641 34.468H144.999V61.2761H154.641V34.468Z" fill="#F9CB7E"/>
<path d="M167.661 24.3243H158.019V61.276H167.661V24.3243Z" fill="#F2595E"/>
<path d="M180.684 45.1245H171.042V61.2762H180.684V45.1245Z" fill="#5142B7"/>
<path d="M193.703 38.358H184.061V61.2758H193.703V38.358Z" fill="#D2DDFD"/>
<path d="M39.241 353.412C39.241 353.412 60.5315 314.019 18.8646 282.083C18.8646 282.083 6.67003 326.738 39.241 353.412Z" fill="#AADB36"/>
<path d="M41.5185 362.151C41.5185 362.151 31.6647 334.663 61.0812 318.723C61.0812 318.723 67.747 350.235 41.5185 362.151Z" fill="#79A808"/>
<path d="M43.1994 307.532C43.1994 307.532 64.3115 295.861 58.7046 264.293C58.7046 264.293 37.4031 278.204 43.0434 307.933" fill="#AADB36"/>
<path d="M38.3521 345.865C38.3521 345.865 70.3658 313.406 38.3521 268.35C38.3521 268.35 14.1524 308.055 38.3521 345.865Z" fill="#79A808"/>
<g style="mix-blend-mode:multiply" opacity="0.4">
<path d="M38.3521 345.865V268.35C38.3521 268.35 14.1524 308.055 38.3521 345.865Z" fill="#8091D8"/>
</g>
<path d="M41.4942 363.411C41.4942 363.411 47.8702 333.203 13.1367 319.236C13.1367 319.236 13.8724 350.714 41.4942 363.411Z" fill="#79A808"/>
<g style="mix-blend-mode:multiply" opacity="0.4">
<path d="M41.4942 363.411L13.1367 319.236C13.1367 319.236 13.8724 350.714 41.4942 363.411Z" fill="#8091D8"/>
</g>
<path d="M57.2909 394.588H29.0003L26.626 363.723H59.6651L57.2909 394.588Z" fill="#7355A8"/>
<g style="mix-blend-mode:multiply" opacity="0.5">
<path d="M26.626 363.723L29.0003 394.588H37.4941L33.8826 363.723H26.626Z" fill="#5D53D6"/>
</g>
<path d="M61.5466 358.941H24.8848V367.925H61.5466V358.941Z" fill="#7355A8"/>
<g style="mix-blend-mode:multiply" opacity="0.5">
<path d="M24.8848 358.941V367.925H36.4775L33.8468 358.941H24.8848Z" fill="#5D53D6"/>
</g>
<path d="M440.286 259.422H114.408C112.562 259.422 111.064 260.919 111.064 262.766V267.715C111.064 269.562 112.562 271.059 114.408 271.059H440.286C442.133 271.059 443.63 269.562 443.63 267.715V262.766C443.63 260.919 442.133 259.422 440.286 259.422Z" fill="#1C1855"/>
<path d="M425.471 385.314C424.468 385.314 423.487 384.768 422.997 383.809L364.888 271.315L306.78 383.809C306.078 385.18 304.395 385.715 303.023 385.002C301.652 384.3 301.117 382.616 301.831 381.245L362.414 263.959C362.893 263.033 363.852 262.454 364.888 262.454C365.925 262.454 366.884 263.033 367.363 263.959L427.946 381.245C428.648 382.616 428.113 384.3 426.753 385.002C426.341 385.214 425.906 385.314 425.471 385.314Z" fill="#1C1855"/>
<path d="M250.401 385.314C249.387 385.314 248.417 384.768 247.926 383.809L189.818 271.315L131.71 383.809C131.007 385.18 129.324 385.715 127.953 385.002C126.582 384.3 126.047 382.616 126.76 381.245L187.343 263.959C187.823 263.033 188.781 262.454 189.818 262.454C190.855 262.454 191.813 263.033 192.293 263.959L252.876 381.245C253.578 382.616 253.043 384.3 251.683 385.002C251.27 385.214 250.836 385.314 250.401 385.314Z" fill="#1C1855"/>
<path d="M125.992 365.506C125.992 365.506 124.956 376.798 124.398 380.276C124.398 380.276 130.172 381.747 142.01 378.046C142.01 378.046 135.958 374.959 134.631 372.451C134.007 371.269 134.007 363.143 134.007 363.143L125.992 365.506Z" fill="#F9A88C"/>
<path d="M124.877 376.664C124.342 376.452 123.016 379.529 123.35 383.62C123.35 383.62 139.368 384.155 150.158 383.241C150.158 383.241 149.623 380.131 148.798 379.607C147.962 379.072 136.024 372.484 135.366 372.228C134.709 371.96 136.18 375.371 136.18 375.371C136.18 375.371 132.792 379.863 124.866 376.675L124.877 376.664Z" fill="#F3595B"/>
<path d="M145.578 377.779C145.578 377.779 145.422 378.838 145.578 382.929C145.578 382.929 127.521 383.91 123.296 382.472C123.296 382.472 122.672 383.531 123.296 385.236C123.296 385.236 140.696 385.771 150.84 384.021C150.84 384.021 150.84 378.158 145.578 377.779Z" fill="#FCFCFC"/>
<path d="M121.747 320.741C121.747 320.741 122.773 354.125 125.091 367.68C125.091 367.68 127.867 369.419 135.056 367.68L136.929 322.736L121.747 320.741Z" fill="#FFCD74"/>
<g style="mix-blend-mode:multiply" opacity="0.5">
<path d="M121.747 320.741C121.747 320.741 122.104 332.144 122.851 344.327C127.12 341.741 131.69 339.679 136.305 337.639L136.929 322.736L121.747 320.741Z" fill="#E5AC5A"/>
</g>
<path d="M158.147 373.688C158.147 373.688 157.11 384.98 156.553 388.458C156.553 388.458 162.327 389.929 174.165 386.228C174.165 386.228 168.112 383.14 166.786 380.632C166.161 379.451 166.161 371.325 166.161 371.325L158.147 373.688Z" fill="#F9A88C"/>
<path d="M157.019 384.835C156.484 384.623 155.157 387.7 155.492 391.791C155.492 391.791 171.51 392.326 182.3 391.412C182.3 391.412 181.765 388.302 180.94 387.778C180.104 387.243 168.166 380.655 167.508 380.399C166.85 380.131 168.322 383.542 168.322 383.542C168.322 383.542 164.933 388.034 157.008 384.846L157.019 384.835Z" fill="#F3595B"/>
<path d="M177.728 385.961C177.728 385.961 177.572 387.02 177.728 391.111C177.728 391.111 159.67 392.092 155.445 390.654C155.445 390.654 154.821 391.713 155.445 393.418C155.445 393.418 172.846 393.953 182.989 392.203C182.989 392.203 182.989 386.34 177.728 385.961Z" fill="#FCFCFC"/>
<path d="M93.3602 286.186C93.3602 286.186 88.3442 299.283 93.3602 308.479C98.3763 317.675 119.957 321.042 149.351 319.091C149.351 319.091 149.93 333.002 152.16 343.313C154.389 353.624 157.031 375.081 157.031 375.081C157.031 375.081 159.115 377.445 167.197 375.081C167.197 375.081 167.888 329.803 167.197 319.481C166.506 309.159 130.134 286.174 130.134 286.174H93.3491L93.3602 286.186Z" fill="#FFCD74"/>
<g style="mix-blend-mode:multiply" opacity="0.5">
<path d="M153.553 318.879C152.204 319.058 150.8 319.325 149.373 319.604C149.496 322.179 150.176 334.162 152.16 343.313C154.389 353.624 157.031 375.082 157.031 375.082C157.031 375.082 157.466 375.561 158.681 375.873C158.525 374.803 158.402 373.722 158.324 372.64C156.362 354.716 155.247 336.792 153.564 318.868L153.553 318.879Z" fill="#E5AC5A"/>
</g>
<g style="mix-blend-mode:multiply" opacity="0.5">
<path d="M114.35 299.829C121.294 295.861 126.979 292.45 132.185 287.512C130.903 286.676 130.145 286.186 130.145 286.186H93.3602C93.3602 286.186 88.3442 299.283 93.3602 308.479C94.3634 310.318 96.0243 311.912 98.276 313.284C102.411 307.666 108.007 303.452 114.35 299.829Z" fill="#E5AC5A"/>
</g>
<path d="M138.012 205.772C138.012 205.772 130.432 219.784 129.842 219.884C129.24 219.984 123.009 219.695 121.749 214.534L128.95 202.952L138.012 205.772Z" fill="#F9A88C"/>
<path d="M122.665 213.051C122.665 213.051 108.319 219.004 99.9481 236.136C91.5768 253.269 90.752 287.4 90.752 287.4C90.752 287.4 111.741 297.8 131.627 287.4C131.627 287.4 134.971 245.6 135.897 233.528C136.822 221.456 135.027 214.645 122.665 213.062V213.051Z" fill="#AADB36"/>
<g style="mix-blend-mode:multiply" opacity="0.1">
<path d="M127.791 219.171C123.031 220.854 120.233 226.728 119.108 230.931C118.283 262.454 126.453 278.093 132.428 277.324C133.476 264.171 135.259 241.81 135.895 233.506C136.285 228.445 136.173 224.332 135.036 221.122C133.03 219.327 130.633 218.223 127.791 219.171Z" fill="#5D53D6"/>
</g>
<path d="M173.159 256.546C173.159 256.546 184.128 251.574 186.58 251.775C189.021 251.976 194.048 256.936 193.257 257.07C192.465 257.204 188.297 254.684 187.906 254.818C187.505 254.952 181.765 261.239 174.352 259.912L173.159 256.535V256.546Z" fill="#F9A88C"/>
<path d="M121.76 223.228C117.848 234.542 126.52 268.964 131.157 270.925C135.794 272.876 177.004 260.849 177.004 260.849C177.004 260.849 177.963 256.156 174.507 254.997C174.507 254.997 143.006 258.497 140.888 257.148C138.782 255.799 138.659 228.111 135.07 221.389C131.257 214.244 123.689 217.61 121.749 223.228H121.76Z" fill="#AADB36"/>
<path d="M156.599 193.02C156.209 202.395 148.094 209.685 138.463 209.283C128.844 208.882 121.353 200.957 121.743 191.571C122.133 182.186 130.248 174.907 139.879 175.308C149.499 175.709 156.989 183.635 156.599 193.02Z" fill="#F9A88C"/>
<path d="M100.053 215.894C102.572 219.84 105.503 223.774 111.634 224.165C116.093 224.443 120.295 223.774 123.606 221.055C130.417 215.604 132.847 207.522 133.828 199.251C134.508 193.611 135.968 187.77 140.638 184.069C144.729 180.859 148.33 182.609 152.71 184.069C158.741 186.02 163.523 181.472 161.472 175.408C159.432 169.378 146 160.516 137.818 167.137C137.818 167.137 128.477 162.957 122.146 170.058C115.814 177.158 117.576 192.441 113.195 195.172C108.814 197.903 91.5923 202.662 100.053 215.905V215.894Z" fill="#1C1855"/>
<path d="M140.271 168.352C139.936 168.475 140.081 169.01 140.416 168.887C146.87 166.502 155.91 168.832 157.749 176.189C157.838 176.534 158.373 176.389 158.284 176.044C156.378 168.419 147.004 165.867 140.26 168.352H140.271Z" fill="#5D53D6"/>
<path d="M142.678 171.741C142.321 171.808 142.478 172.343 142.823 172.276C148.33 171.184 154.672 174.193 155.486 180.146C155.53 180.502 156.077 180.346 156.021 180.001C155.163 173.747 148.441 170.604 142.667 171.741H142.678Z" fill="#5D53D6"/>
<path d="M144.027 176.255C143.671 176.278 143.671 176.835 144.027 176.813C146.792 176.612 149.199 178.006 149.545 180.915C149.59 181.272 150.147 181.272 150.102 180.915C149.723 177.716 147.137 176.021 144.027 176.255Z" fill="#5D53D6"/>
<path d="M140.561 175.988C132.892 177.058 131.599 185.251 130.864 191.649C130.206 197.412 129.08 202.852 126.305 208.002C123.663 212.928 117.922 219.773 111.78 219.394C111.424 219.371 111.424 219.929 111.78 219.951C116.518 220.241 120.441 216.473 123.384 213.174C126.605 209.562 128.634 205.025 129.938 200.411C132.079 192.82 130.106 178.006 140.706 176.523C141.063 176.478 140.907 175.932 140.561 175.988Z" fill="#5D53D6"/>
<path d="M125.324 194.96C127.086 186.979 126.851 172.711 138.79 174.126C139.146 174.171 139.146 173.614 138.79 173.569C130.563 172.588 127.063 179.934 126.027 186.956C125.291 191.872 124.767 196.81 122.671 201.38C119.952 207.299 114.178 210.454 108.036 211.758C107.679 211.836 107.835 212.371 108.181 212.293C112.717 211.323 116.83 209.506 120.108 206.151C123.05 203.142 124.433 198.962 125.324 194.949V194.96Z" fill="#5D53D6"/>
<path d="M120.731 189.465C121.634 184.95 122.303 180.447 124.711 176.423C127.564 171.652 132.614 170.091 137.875 171.017C138.221 171.083 138.377 170.537 138.02 170.482C129.76 169.032 124.343 173.77 121.913 181.394C120.508 185.797 120.263 190.468 118.769 194.848C116.484 201.525 110.342 204.223 103.799 205.271C103.443 205.326 103.599 205.862 103.944 205.806C108.659 205.048 113.285 203.588 116.551 199.931C119.093 197.089 119.996 193.098 120.731 189.465Z" fill="#5D53D6"/>
<path d="M138.015 196.286C138.015 198.794 136.042 200.834 133.612 200.834C131.182 200.834 129.209 198.794 129.209 196.286C129.209 193.778 131.182 191.738 133.612 191.738C136.042 191.738 138.015 193.778 138.015 196.286Z" fill="#F9A88C"/>
<path d="M134.985 194.369C133.369 193.589 131.853 195.049 131.217 196.398C131.061 196.721 131.541 197 131.697 196.677C132.232 195.551 133.235 194.425 134.606 194.815C135.453 195.06 135.832 195.707 135.91 196.442C134.929 196.164 133.848 196.376 133.547 197.501C133.224 198.728 134.372 199.352 135.397 199.017C135.509 199.129 135.732 199.162 135.843 198.984C136.835 197.457 136.802 195.25 134.974 194.369H134.985ZM135.52 198.427C135.52 198.427 135.442 198.427 135.386 198.449C134.528 198.794 133.714 198.304 134.205 197.334C134.506 196.721 135.364 196.844 135.921 197.033C135.877 197.524 135.732 198.014 135.509 198.438L135.52 198.427Z" fill="#D17461"/>
<path d="M118.284 389.104C118.284 390.676 117.013 391.947 115.441 391.947C113.869 391.947 112.599 390.676 112.599 389.104V329.625C112.599 328.053 113.869 326.782 115.441 326.782C117.013 326.782 118.284 328.053 118.284 329.625V389.104Z" fill="#1C1855"/>
<path d="M133.183 392.315C133.183 394.288 131.589 395.881 129.616 395.881H101.27C99.2971 395.881 97.7031 394.288 97.7031 392.315C97.7031 390.342 99.2971 388.748 101.27 388.748H129.616C131.589 388.748 133.183 390.342 133.183 392.315Z" fill="#1C1855"/>
<path d="M74.0292 248.376C65.5576 256.847 75.4225 323.773 93.4915 327.875C111.561 331.977 147.754 331.709 151.756 327.462C156.549 322.39 153.885 317.475 146.55 317.007C140.397 316.605 99.1318 322.223 91.3959 302.382C83.66 282.541 86.2907 236.114 74.0292 248.376Z" fill="#5D53D6"/>
<g style="mix-blend-mode:multiply" opacity="0.5">
<path d="M87.4611 309.07C75.2107 291.915 76.6821 267.269 77.9863 246.369C76.8716 246.235 75.5674 246.848 74.0292 248.387C65.5576 256.858 75.4225 323.784 93.4915 327.886C111.561 331.988 147.754 331.72 151.756 327.473C153.707 325.411 154.409 323.371 154.074 321.655C147.175 322.881 140.286 323.895 133.386 324.486C116.866 325.601 97.8165 323.929 87.4611 309.081V309.07Z" fill="#5D53D6"/>
</g>
<path d="M408.481 195.138C408.894 204.791 416.485 212.327 425.447 211.959C434.409 211.591 441.342 203.476 440.93 193.823C440.517 184.17 432.926 176.635 423.964 177.002C415.002 177.37 408.069 185.485 408.481 195.138Z" fill="#F9A88C"/>
<path d="M427.788 205.772C427.788 205.772 435.368 219.784 435.959 219.884C436.561 219.985 442.792 219.695 444.051 214.534L436.85 202.952L427.788 205.772Z" fill="#F9A88C"/>
<path d="M450.462 175.275C448.444 172.376 445.49 172.276 442.848 173.703C444.699 167.617 437.208 165.622 433.619 170.381C432.081 160.215 418.125 166.959 417.623 172.956C414.457 172.499 410.879 172.767 408.94 175.687C407.257 178.229 405.897 182.71 408.249 185.34C412.161 189.721 418.136 186.265 422.327 183.055C422.271 185.719 422.962 188.172 425.482 190.133C426.485 190.914 427.811 191.025 429.026 191.125C431.657 191.326 433.307 188.996 431.323 192.407C430.018 194.648 428.814 198.705 431.623 200.489C433.53 201.704 435.09 203.086 436.662 202.306C437.799 205.271 439.716 206.653 442.748 206.475C445.044 206.341 446.761 203.755 447.396 201.826C448.255 199.207 446.705 196.208 445.133 194.001C447.742 193.578 449.971 192.329 450.919 189.654C451.732 187.38 450.573 185.597 448.845 184.415C451.097 181.718 452.535 178.262 450.45 175.275H450.462Z" fill="#1C1855"/>
<path d="M417.999 174.918C414.499 175.141 410.408 176.144 410.308 180.336C410.196 184.906 414.644 184.872 417.888 183.746C418.222 183.624 418.077 183.089 417.743 183.211C414.7 184.27 411.088 184.493 410.876 180.336C410.687 176.479 415.067 175.654 418.01 175.476C418.367 175.453 418.367 174.896 418.01 174.918H417.999Z" fill="#5D53D6"/>
<path d="M429.415 178.206C429.749 178.095 429.604 177.56 429.27 177.671C426.684 178.518 424.443 177.716 423.73 174.918C423.05 172.31 425.792 170.827 427.832 170.181C428.177 170.069 428.032 169.534 427.687 169.646C425.491 170.337 422.704 171.897 423.139 174.639C423.663 177.972 426.394 179.198 429.437 178.206H429.415Z" fill="#5D53D6"/>
<path d="M438.9 196.209C434.619 194.904 433.482 190.301 435.879 186.678C436.035 186.433 435.734 186.165 435.5 186.299C432.903 187.737 430.049 188.673 427.485 186.422C425.679 184.839 426.95 182.052 427.786 180.436C427.953 180.112 427.474 179.834 427.307 180.157C426.293 182.119 425.579 184.148 426.627 186.221C427.808 188.562 431.041 188.573 433.159 188.004C433.705 187.86 434.441 187.481 434.954 187.235C435.143 187.146 434.708 187.436 434.552 187.915C434.129 189.309 433.883 190.825 434.218 192.274C434.798 194.726 436.38 196.019 438.743 196.732C439.089 196.833 439.234 196.298 438.888 196.197L438.9 196.209Z" fill="#5D53D6"/>
<path d="M447.416 188.439C447.115 190.557 443.915 189.532 442.712 188.907C440.683 187.848 440.794 185.396 441.207 183.49C441.285 183.144 440.75 182.988 440.672 183.345C440.114 185.976 440.382 188.539 443.102 189.699C444.606 190.345 447.638 190.836 447.962 188.584C448.006 188.227 447.471 188.082 447.427 188.439H447.416Z" fill="#5D53D6"/>
<path d="M443.08 180.045C444.094 181.071 445.621 181.573 446.992 181.015C447.315 180.881 447.17 180.346 446.847 180.48C445.61 180.993 444.428 180.514 443.481 179.655C442.444 178.73 442.879 177.549 443.247 176.423C443.358 176.077 442.823 175.932 442.712 176.278C442.567 176.746 442.433 177.192 442.366 177.627C440.482 178.34 438.387 178.719 436.86 177.103C434.753 174.884 435.957 172.165 438.22 170.805C438.532 170.615 438.242 170.136 437.941 170.325C435.622 171.73 434.597 173.803 435.745 176.378C436.971 179.143 439.869 179.12 442.322 178.251C442.322 178.886 442.533 179.488 443.102 180.068L443.08 180.045Z" fill="#5D53D6"/>
<path d="M431.756 197.524C431.143 199.686 432.402 201.938 434.565 202.562C436.727 203.175 438.979 201.916 439.603 199.753C440.216 197.591 438.957 195.339 436.794 194.715C434.632 194.102 432.38 195.361 431.756 197.524Z" fill="#F9A88C"/>
<path d="M434.743 201.592C434.887 201.748 435.099 201.67 435.188 201.537C436.258 201.648 437.262 200.801 436.682 199.664C436.158 198.627 435.055 198.65 434.152 199.118C434.085 198.382 434.319 197.669 435.088 197.256C436.348 196.587 437.574 197.479 438.321 198.471C438.532 198.761 438.945 198.382 438.733 198.092C437.83 196.899 436.047 195.785 434.631 196.888C433.026 198.137 433.449 200.299 434.743 201.581V201.592ZM434.252 199.697C434.765 199.396 435.567 199.095 436.002 199.63C436.671 200.478 435.98 201.135 435.077 200.968C435.032 200.968 434.988 200.968 434.943 200.968C434.642 200.6 434.397 200.154 434.252 199.686V199.697Z" fill="#D17461"/>
<path d="M439.806 365.506C439.806 365.506 440.843 376.798 441.4 380.276C441.4 380.276 435.626 381.747 423.788 378.046C423.788 378.046 429.841 374.959 431.167 372.451C431.791 371.269 431.791 363.143 431.791 363.143L439.806 365.506Z" fill="#F9A88C"/>
<path d="M440.919 376.664C441.454 376.452 442.78 379.529 442.446 383.62C442.446 383.62 426.428 384.155 415.638 383.241C415.638 383.241 416.162 380.131 416.998 379.607C417.834 379.072 429.772 372.484 430.43 372.228C431.087 371.96 429.616 375.371 429.616 375.371C429.616 375.371 433.004 379.863 440.93 376.675L440.919 376.664Z" fill="#FFD183"/>
<path d="M420.219 377.779C420.219 377.779 420.375 378.838 420.219 382.929C420.219 382.929 438.277 383.91 442.502 382.472C442.502 382.472 443.126 383.531 442.502 385.236C442.502 385.236 425.102 385.771 414.958 384.021C414.958 384.021 414.958 378.158 420.208 377.779H420.219Z" fill="#FCFCFC"/>
<path d="M444.061 320.741C444.061 320.741 443.035 354.125 440.717 367.68C440.717 367.68 437.941 369.419 430.752 367.68L428.879 322.736L444.061 320.741Z" fill="#F3595B"/>
<g style="mix-blend-mode:multiply" opacity="0.5">
<path d="M428.87 322.736L429.494 337.583C434.065 339.099 438.902 340.471 443.049 342.733C443.74 331.163 444.063 320.741 444.063 320.741L428.881 322.736H428.87Z" fill="#C64A50"/>
</g>
<path d="M407.662 373.688C407.662 373.688 408.698 384.979 409.256 388.457C409.256 388.457 403.481 389.929 391.644 386.228C391.644 386.228 397.696 383.14 399.023 380.632C399.647 379.451 399.647 371.325 399.647 371.325L407.662 373.688Z" fill="#F9A88C"/>
<path d="M408.787 384.834C409.322 384.623 410.648 387.699 410.314 391.79C410.314 391.79 394.296 392.325 383.506 391.411C383.506 391.411 384.03 388.301 384.866 387.777C385.702 387.242 397.64 380.654 398.298 380.398C398.955 380.13 397.484 383.541 397.484 383.541C397.484 383.541 400.873 388.034 408.798 384.846L408.787 384.834Z" fill="#FFD183"/>
<path d="M388.075 385.96C388.075 385.96 388.231 387.019 388.075 391.11C388.075 391.11 406.133 392.091 410.357 390.653C410.357 390.653 410.982 391.712 410.357 393.417C410.357 393.417 392.957 393.953 382.813 392.202C382.813 392.202 382.814 386.339 388.064 385.96H388.075Z" fill="#FCFCFC"/>
<path d="M472.444 286.185C472.444 286.185 477.461 299.283 472.444 308.479C467.428 317.675 445.859 320.863 416.465 318.912C416.465 318.912 415.874 333.002 413.645 343.313C411.416 353.624 408.774 375.081 408.774 375.081C408.774 375.081 406.689 377.444 398.608 375.081C398.608 375.081 397.917 329.803 398.608 319.481C399.299 309.159 435.671 286.174 435.671 286.174H472.456L472.444 286.185Z" fill="#F3595B"/>
<g style="mix-blend-mode:multiply" opacity="0.5">
<path d="M413.308 317.14C408.315 319.704 408.85 322.401 408.181 327.261C406.966 336.167 406.431 345.085 405.205 353.858C404.123 361.226 402.63 368.471 400.991 375.672C407.089 376.954 408.772 375.07 408.772 375.07C408.772 375.07 411.413 353.612 413.643 343.301C415.872 332.991 416.463 318.901 416.463 318.901C431.076 319.871 443.75 319.57 453.426 317.887C446.37 318.823 419.105 314.153 413.297 317.118L413.308 317.14Z" fill="#C64A50"/>
</g>
<g style="mix-blend-mode:multiply" opacity="0.5">
<path d="M456.372 298.781C461.923 301.958 467.117 305.347 472.089 309.07C472.212 308.88 472.334 308.68 472.446 308.479C477.462 299.283 472.446 286.185 472.446 286.185H435.661C435.661 286.185 434.736 286.776 433.187 287.79C435.003 288.326 436.798 288.927 438.548 289.73C444.623 292.561 450.564 295.538 456.372 298.781Z" fill="#C64A50"/>
</g>
<path d="M398.332 237.218C398.589 238.767 397.596 240.25 396.114 240.539L378.825 243.817C377.343 244.095 375.916 243.07 375.66 241.52L370.744 212.483C370.476 210.934 371.468 209.451 372.962 209.172L390.251 205.895C391.744 205.617 393.16 206.642 393.416 208.191L398.332 237.229V237.218Z" fill="#FCFCFC"/>
<path d="M396.348 233.495C396.615 235.044 395.623 236.527 394.129 236.817L379.449 239.603C377.967 239.882 376.54 238.856 376.283 237.307L372.304 213.765C372.048 212.216 373.04 210.733 374.522 210.443L389.203 207.656C390.685 207.378 392.112 208.403 392.368 209.953L396.348 233.495Z" fill="#DFE7F4"/>
<path d="M388.045 239.815C388.134 240.361 387.788 240.874 387.264 240.974C386.741 241.075 386.25 240.718 386.15 240.172C386.061 239.625 386.406 239.113 386.93 239.012C387.454 238.912 387.944 239.269 388.045 239.815Z" fill="#DFE7F4"/>
<path d="M392.458 220.308C392.458 220.308 397.05 217.61 398.009 219.517C398.968 221.434 398.8 226.573 398.8 226.573L439.687 236.95L436.164 250.204L397.374 231.031C397.374 231.031 396.181 223.184 395.813 222.248C395.724 222.013 393.773 222.515 392.815 222.649C390.864 222.916 390.228 221.367 392.469 220.297L392.458 220.308Z" fill="#F9A88C"/>
<path d="M443.133 213.051C443.133 213.051 457.479 219.004 465.85 236.136C474.221 253.269 475.046 287.401 475.046 287.401C475.046 287.401 454.057 297.801 434.171 287.401C434.171 287.401 430.827 245.6 429.901 233.528C428.976 221.456 430.771 214.645 443.133 213.063V213.051Z" fill="#9C81CC"/>
<g style="mix-blend-mode:multiply" opacity="0.5">
<path d="M443.669 248.42C445.965 239.38 445.564 230.061 442.587 221.289C438.262 226.695 434.082 232.068 430.226 237.719C430.872 245.968 431.953 259.556 432.823 270.446C433.202 269.766 433.581 269.086 433.96 268.406C437.471 261.93 441.651 255.443 443.68 248.431L443.669 248.42Z" fill="#E5AC5A"/>
</g>
<path d="M425.399 240.695C425.399 240.695 419.825 253.392 417.774 253.737C415.734 254.083 383.754 242.189 382.639 240.695C381.525 239.213 381.892 230.652 380.967 230.474C380.042 230.284 379.853 237.719 379.106 238.098C378.626 238.344 376.052 236.281 374.859 233.918C374.524 233.261 373.833 230.753 373.833 230.753C373.833 230.753 371.125 231.979 372.228 234.119C372.228 234.119 372.674 239.425 374.168 242.145C375.661 244.864 382.004 245.968 382.004 245.968C382.004 245.968 412.669 265.921 420.427 266.924C426.892 267.76 438.541 244.285 438.541 244.285L425.387 240.718L425.399 240.695Z" fill="#F9A88C"/>
<path d="M420.483 245.388C420.483 245.388 427.205 251.798 439.723 252.489C439.723 252.489 452.363 230.474 441.573 218.536C434.785 211.023 425.789 226.517 420.483 245.388Z" fill="#9C81CC"/>
<path d="M447.516 389.104C447.516 390.676 448.786 391.947 450.358 391.947C451.93 391.947 453.2 390.676 453.2 389.104V329.625C453.2 328.053 451.93 326.782 450.358 326.782C448.786 326.782 447.516 328.053 447.516 329.625V389.104Z" fill="#1C1855"/>
<path d="M432.611 392.315C432.611 394.288 434.216 395.882 436.189 395.882H464.536C466.509 395.882 468.103 394.288 468.103 392.315C468.103 390.342 466.498 388.748 464.536 388.748H436.189C434.216 388.748 432.611 390.342 432.611 392.315Z" fill="#1C1855"/>
<path d="M491.767 248.376C500.239 256.847 490.374 323.773 472.305 327.875C454.236 331.977 418.042 331.709 414.041 327.462C409.247 322.39 411.911 317.475 419.246 317.007C425.399 316.605 466.665 322.223 474.401 302.382C482.136 282.541 479.506 236.114 491.767 248.376Z" fill="#5D53D6"/>
<g style="mix-blend-mode:multiply" opacity="0.5">
<path d="M491.768 248.375C490.631 247.239 489.628 246.614 488.725 246.414C488.257 258.151 487.878 269.889 486.373 281.626C485.247 290.031 483.854 298.993 479.373 306.551C471.526 320.272 454.17 325.032 439.323 325.879C430.16 326.314 421.008 325.222 411.846 323.929C412.18 325.066 412.882 326.269 414.03 327.473C418.032 331.709 454.226 331.988 472.295 327.886C490.364 323.784 500.229 256.858 491.757 248.387L491.768 248.375Z" fill="#5D53D6"/>
</g>
</svg>
